<svg xmlns="http://www.w3.org/2000/svg" xmlns:xlink="http://www.w3.org/1999/xlink" width="1395.59" height="1333.36" viewBox="0 0 1395.59 1333.36">
  <defs>
    <linearGradient id="8ae95879-9f43-4cf2-bef4-2ee23c85ceb5" x1="-88.42" y1="380.52" x2="1290.18" y2="882.29" gradientUnits="userSpaceOnUse">
      <stop offset="0" stop-color="#150773"/>
      <stop offset="0.54" stop-color="#5333ed"/>
      <stop offset="0.93" stop-color="#2cd4d9"/>
    </linearGradient>
    <linearGradient id="19b23bcd-69d9-4398-a7b7-20206bbd386e" x1="957.94" y1="552.21" x2="957.94" y2="188.92" gradientUnits="userSpaceOnUse">
      <stop offset="0" stop-color="#2cd4d9" stop-opacity="0.5"/>
      <stop offset="0.24" stop-color="#2cd4d9" stop-opacity="0.4"/>
      <stop offset="0.74" stop-color="#2cd4d9" stop-opacity="0.15"/>
      <stop offset="1" stop-color="#2cd4d9" stop-opacity="0"/>
    </linearGradient>
    <linearGradient id="83551aa7-9740-496d-aca5-c55a00f7cf21" x1="1034.24" y1="543.19" x2="1034.24" y2="175.27" xlink:href="#19b23bcd-69d9-4398-a7b7-20206bbd386e"/>
    <linearGradient id="c23945c2-44ec-4914-8ae2-3a19fcb74c62" x1="782.37" y1="200.39" x2="782.37" y2="666.8" gradientUnits="userSpaceOnUse">
      <stop offset="0" stop-color="#2cd4d9" stop-opacity="0"/>
      <stop offset="1" stop-color="#2cd4d9" stop-opacity="0.5"/>
    </linearGradient>
    <linearGradient id="1e136b77-1955-4914-81f6-d1716b0559be" x1="893.55" y1="568.27" x2="893.55" y2="328.54" gradientUnits="userSpaceOnUse">
      <stop offset="0" stop-color="#2cd4d9" stop-opacity="0.5"/>
      <stop offset="0.54" stop-color="#2cd4d9" stop-opacity="0.4"/>
      <stop offset="1" stop-color="#2cd4d9" stop-opacity="0.3"/>
    </linearGradient>
    <linearGradient id="c838df3f-a536-4ade-9059-6da6474eb502" x1="850.53" y1="572.02" x2="850.53" y2="189.98" gradientUnits="userSpaceOnUse">
      <stop offset="0" stop-color="#2cd4d9" stop-opacity="0.8"/>
      <stop offset="0.07" stop-color="#2cd4d9" stop-opacity="0.69"/>
      <stop offset="0.23" stop-color="#2cd4d9" stop-opacity="0.48"/>
      <stop offset="0.39" stop-color="#2cd4d9" stop-opacity="0.31"/>
      <stop offset="0.55" stop-color="#2cd4d9" stop-opacity="0.17"/>
      <stop offset="0.7" stop-color="#2cd4d9" stop-opacity="0.08"/>
      <stop offset="0.85" stop-color="#2cd4d9" stop-opacity="0.02"/>
      <stop offset="1" stop-color="#2cd4d9" stop-opacity="0"/>
    </linearGradient>
    <linearGradient id="facf4739-49d5-454d-92f5-56b217e0b1fa" x1="899.34" y1="307.13" x2="899.34" y2="228.53" xlink:href="#19b23bcd-69d9-4398-a7b7-20206bbd386e"/>
    <linearGradient id="87946779-8151-4a2e-8835-589e0c2552dc" x1="820.5" y1="625.57" x2="820.5" y2="301.11" gradientUnits="userSpaceOnUse">
      <stop offset="0" stop-color="#5333ed"/>
      <stop offset="0.73" stop-color="#5333ed" stop-opacity="0.27"/>
      <stop offset="1" stop-color="#5333ed" stop-opacity="0"/>
    </linearGradient>
    <linearGradient id="db93488e-c6ed-4d26-aca1-7a9c095e0cba" x1="779.26" y1="690.59" x2="779.26" y2="171.77" gradientUnits="userSpaceOnUse">
      <stop offset="0" stop-color="#5333ed"/>
      <stop offset="0.17" stop-color="#5333ed" stop-opacity="0.85"/>
      <stop offset="0.55" stop-color="#5333ed" stop-opacity="0.48"/>
      <stop offset="1" stop-color="#5333ed" stop-opacity="0"/>
    </linearGradient>
    <linearGradient id="62ab0e9a-739a-4c7d-81de-3f17d1c608ce" x1="935.84" y1="561.16" x2="935.84" y2="180.48" gradientUnits="userSpaceOnUse">
      <stop offset="0" stop-color="#5333ed" stop-opacity="0.6"/>
      <stop offset="0.14" stop-color="#5333ed" stop-opacity="0.58"/>
      <stop offset="0.32" stop-color="#5333ed" stop-opacity="0.51"/>
      <stop offset="0.51" stop-color="#5333ed" stop-opacity="0.4"/>
      <stop offset="0.73" stop-color="#5333ed" stop-opacity="0.25"/>
      <stop offset="0.95" stop-color="#5333ed" stop-opacity="0.05"/>
      <stop offset="1" stop-color="#5333ed" stop-opacity="0"/>
    </linearGradient>
    <linearGradient id="9f6024f4-41cf-4cf5-92ab-54ec34944749" x1="803.68" y1="168.52" x2="803.68" y2="619.51" xlink:href="#c23945c2-44ec-4914-8ae2-3a19fcb74c62"/>
    <linearGradient id="22294d23-095e-454f-a3bb-9e75d4f1934e" x1="1001.73" y1="669.16" x2="665.85" y2="620.49" gradientUnits="userSpaceOnUse">
      <stop offset="0" stop-color="#2cd4d9"/>
      <stop offset="0.16" stop-color="#2cd4d9" stop-opacity="0.8"/>
      <stop offset="0.34" stop-color="#2cd4d9" stop-opacity="0.62"/>
      <stop offset="0.52" stop-color="#2cd4d9" stop-opacity="0.48"/>
      <stop offset="0.69" stop-color="#2cd4d9" stop-opacity="0.38"/>
      <stop offset="0.85" stop-color="#2cd4d9" stop-opacity="0.32"/>
      <stop offset="1" stop-color="#2cd4d9" stop-opacity="0.3"/>
    </linearGradient>
    <linearGradient id="37fc80f3-2b09-4f4f-84dd-575dbb16ba1d" x1="1134.46" y1="673.46" x2="880.79" y2="753.73" gradientUnits="userSpaceOnUse">
      <stop offset="0" stop-color="#5333ed"/>
      <stop offset="0.05" stop-color="#5333ed" stop-opacity="0.91"/>
      <stop offset="0.19" stop-color="#5333ed" stop-opacity="0.67"/>
      <stop offset="0.34" stop-color="#5333ed" stop-opacity="0.46"/>
      <stop offset="0.48" stop-color="#5333ed" stop-opacity="0.3"/>
      <stop offset="0.62" stop-color="#5333ed" stop-opacity="0.17"/>
      <stop offset="0.75" stop-color="#5333ed" stop-opacity="0.07"/>
      <stop offset="0.88" stop-color="#5333ed" stop-opacity="0.02"/>
      <stop offset="1" stop-color="#5333ed" stop-opacity="0"/>
    </linearGradient>
    <linearGradient id="17ff35ee-4906-4b98-a529-65f015aa2eda" x1="860.41" y1="697.94" x2="864.62" y2="659.11" gradientUnits="userSpaceOnUse">
      <stop offset="0" stop-color="#150773"/>
      <stop offset="0.03" stop-color="#2e2384"/>
      <stop offset="0.07" stop-color="#534c9c"/>
      <stop offset="0.12" stop-color="#7572b2"/>
      <stop offset="0.18" stop-color="#9292c5"/>
      <stop offset="0.24" stop-color="#aaaed5"/>
      <stop offset="0.3" stop-color="#bec4e2"/>
      <stop offset="0.38" stop-color="#cdd4ec"/>
      <stop offset="0.48" stop-color="#d7e0f3"/>
      <stop offset="0.62" stop-color="#dde7f7"/>
      <stop offset="1" stop-color="#dfe9f8"/>
    </linearGradient>
    <linearGradient id="38f28e71-e680-41de-b2b3-87f7cf2ecbad" x1="1406.91" y1="-1455.88" x2="1410.32" y2="-1454.27" gradientTransform="translate(585.64 2698.4) rotate(-29.42)" gradientUnits="userSpaceOnUse">
      <stop offset="0" stop-color="#6e7075"/>
      <stop offset="1" stop-color="#43414e"/>
    </linearGradient>
    <linearGradient id="4f523652-6d49-47f4-b80d-90d4dfacf7de" x1="1092.33" y1="713.44" x2="1092.1" y2="699.14" gradientUnits="userSpaceOnUse">
      <stop offset="0" stop-color="#5333ed"/>
      <stop offset="1" stop-color="#2cd4d9"/>
    </linearGradient>
    <linearGradient id="cbc70a67-0b88-436f-9f7f-fc2a44bbb718" x1="807.76" y1="626.17" x2="857.23" y2="626.17" gradientUnits="userSpaceOnUse">
      <stop offset="0" stop-color="#150773"/>
      <stop offset="0.5" stop-color="#5333ed"/>
      <stop offset="1" stop-color="#2cd4d9"/>
    </linearGradient>
    <linearGradient id="720a796d-ecb7-49c1-9959-40e4da474894" x1="977.21" y1="418.73" x2="1289.1" y2="418.73" gradientUnits="userSpaceOnUse">
      <stop offset="0" stop-color="#fff" stop-opacity="0.3"/>
      <stop offset="0.33" stop-color="#fff" stop-opacity="0.22"/>
      <stop offset="1" stop-color="#fff" stop-opacity="0"/>
    </linearGradient>
    <linearGradient id="7e0b728d-2c87-450e-bd53-8dfe3d3f4435" x1="1060.86" y1="481.77" x2="1053.46" y2="477.34" gradientUnits="userSpaceOnUse">
      <stop offset="0" stop-color="#150773"/>
      <stop offset="1" stop-color="#5333ed"/>
    </linearGradient>
    <linearGradient id="7abe7511-f4e5-43fd-b0c7-28c276c3cba6" x1="1065.14" y1="486.11" x2="1068.52" y2="482.4" xlink:href="#7e0b728d-2c87-450e-bd53-8dfe3d3f4435"/>
    <linearGradient id="bfdd940e-370d-4add-8d23-c779c9382c44" x1="1062.13" y1="484.94" x2="1061.45" y2="513.92" xlink:href="#4f523652-6d49-47f4-b80d-90d4dfacf7de"/>
    <linearGradient id="a3c52b98-9314-4b14-aa3b-6144129155df" x1="824.31" y1="366.22" x2="1290.15" y2="366.22" gradientUnits="userSpaceOnUse">
      <stop offset="0" stop-color="#2cd4d9" stop-opacity="0.3"/>
      <stop offset="0.38" stop-color="#2cd4d9" stop-opacity="0.2"/>
      <stop offset="1" stop-color="#2cd4d9" stop-opacity="0"/>
    </linearGradient>
  </defs>
  <title>home-hero</title>
  <g style="isolation: isolate">
    <g id="02fd7753-756e-4208-a540-d2de42971ccc" data-name="figures and interactions">
      <polygon points="0 0 0 1333.36 1395.59 520.7 1395.59 0 0 0" style="fill: url(#8ae95879-9f43-4cf2-bef4-2ee23c85ceb5)"/>
      <g>
        <polyline points="960.92 552.21 960.92 381.35 952.09 372.52 952.09 290.46 963.79 278.76 963.79 188.92" style="fill: none;stroke-miterlimit: 10;stroke-width: 2.11392855644226px;stroke: url(#19b23bcd-69d9-4398-a7b7-20206bbd386e)"/>
        <circle cx="963.13" cy="345.66" r="1.4" transform="translate(86.82 874.03) rotate(-50.83)" style="fill: none;stroke: #2cd4d9;stroke-miterlimit: 10;stroke-width: 2.11392855644226px;opacity: 0.30000000000000004"/>
        <circle cx="963.13" cy="338.6" r="1.4" transform="translate(-29.41 99.59) rotate(-5.83)" style="fill: none;stroke: #2cd4d9;stroke-miterlimit: 10;stroke-width: 2.11392855644226px;opacity: 0.30000000000000004"/>
        <line x1="1034.24" y1="543.19" x2="1034.24" y2="175.27" style="fill: none;stroke-miterlimit: 10;stroke-width: 2.11392855644226px;stroke: url(#83551aa7-9740-496d-aca5-c55a00f7cf21)"/>
        <polyline points="782.37 200.39 782.37 540.11 782.37 666.8" style="fill: none;stroke-miterlimit: 10;stroke-width: 2.11392855644226px;stroke: url(#c23945c2-44ec-4914-8ae2-3a19fcb74c62)"/>
        <polyline points="901 568.27 901 480 886.1 465.11 886.1 342.03 898.85 329.29" style="fill: none;stroke-miterlimit: 10;stroke-width: 2.11392855644226px;stroke: url(#1e136b77-1955-4914-81f6-d1716b0559be)"/>
        <polyline points="852.9 572.02 852.9 487.79 837.3 472.19 837.3 374.24 863.75 347.78 863.75 189.98" style="fill: none;stroke-miterlimit: 10;stroke-width: 2.11392855644226px;stroke: url(#c838df3f-a536-4ade-9059-6da6474eb502)"/>
        <line x1="899.34" y1="307.13" x2="899.34" y2="228.53" style="fill: none;stroke-miterlimit: 10;stroke-width: 2.11392855644226px;stroke: url(#facf4739-49d5-454d-92f5-56b217e0b1fa)"/>
        <circle cx="899.34" cy="323.41" r="1.4" transform="translate(80.57 816.38) rotate(-50.83)" style="fill: none;stroke: #2cd4d9;stroke-miterlimit: 10;stroke-width: 2.11392855644226px;opacity: 0.30000000000000004"/>
        <circle cx="899.34" cy="309.19" r="1.4" transform="translate(-26.76 92.95) rotate(-5.83)" style="fill: none;stroke: #2cd4d9;stroke-miterlimit: 10;stroke-width: 2.11392855644226px;opacity: 0.30000000000000004"/>
        <polyline points="813.03 624.51 813.03 467.15 827.97 452.21 827.97 302.17" style="fill: none;stroke-linecap: round;stroke-linejoin: round;stroke-width: 2.11392855644226px;stroke: url(#87946779-8151-4a2e-8835-589e0c2552dc)"/>
        <polyline points="771.79 689.53 771.79 587.79 771.79 341.98 786.73 327.04 786.73 172.83" style="fill: none;stroke-linecap: round;stroke-linejoin: round;stroke-width: 2.11392855644226px;stroke: url(#db93488e-c6ed-4d26-aca1-7a9c095e0cba)"/>
        <polyline points="928.37 560.1 928.37 253.1 943.31 238.16 943.31 181.54" style="fill: none;stroke-linecap: round;stroke-linejoin: round;stroke-width: 2.11392855644226px;stroke: url(#62ab0e9a-739a-4c7d-81de-3f17d1c608ce)"/>
        <polyline points="803.07 168.53 804.28 466.5 804.28 619.51" style="fill: none;stroke-miterlimit: 10;stroke-width: 2.11392855644226px;stroke: url(#9f6024f4-41cf-4cf5-92ab-54ec34944749)"/>
        <polygon points="756.75 453.27 489.76 608.95 489.76 303.49 756.75 147.81 756.75 453.27" style="fill: none;stroke: #2cd4d9;stroke-miterlimit: 10;stroke-width: 2.11392855644226px;opacity: 0.30000000000000004;mix-blend-mode: overlay"/>
        <path d="M1204.28,656.93l-160.55-92.7L824.41,598.16,765.64,724.79l160.55,92.7,219.32-33.93Z" style="fill: #2cd4d9;fill-opacity: 0.2;mix-blend-mode: color-burn"/>
        <path d="M1204.28,644.9l-160.55-92.7L824.41,586.13,765.64,712.76l160.55,92.7,219.32-33.93Z" style="fill: #2cd4d9;fill-opacity: 0.5;mix-blend-mode: color-burn"/>
        <path d="M1204.28,632.8l-160.55-92.7L824.41,574,765.64,700.66l160.55,92.7,219.32-33.93ZM923.11,702.44c-34.16-19.72-34.16-51.7,0-71.42s89.54-19.72,123.7,0,34.16,51.7,0,71.42S957.27,722.17,923.11,702.44Z" style="fill: url(#22294d23-095e-454f-a3bb-9e75d4f1934e)"/>
        <path d="M1131.85,612.86c-34.67,0-62.77,16.23-62.77,36.25a21.65,21.65,0,0,0,1.08,6.58c.21.55.42,1.09.6,1.64,5.17,15.84-2.85,32.84-24.09,45.1-34.16,19.72-89.54,19.72-123.7,0-11.22-6.48-18.73-14.28-22.58-22.54L765.64,700.75,926,793.36l219.32-33.93,45.54-98.12a25.1,25.1,0,0,0,2.67-5.75,21.63,21.63,0,0,0,1-6.44C1194.62,629.09,1166.51,612.86,1131.85,612.86Z" style="fill: url(#37fc80f3-2b09-4f4f-84dd-575dbb16ba1d)"/>
        <path d="M923.11,684c-34.16-19.72-34.16-51.7,0-71.42s89.54-19.72,123.7,0,34.16,51.7,0,71.42S957.27,703.73,923.11,684Z" style="fill: #fff;fill-opacity: 0.6000000000000001;stroke: #fff;stroke-miterlimit: 10;stroke-width: 2.11392855644226px"/>
        <path d="M923.11,677.22c-34.16-19.72-34.16-51.7,0-71.42s89.54-19.72,123.7,0,34.16,51.7,0,71.42S957.27,696.94,923.11,677.22Z" style="fill: none;stroke: #fff;stroke-miterlimit: 10;stroke-opacity: 0.5;stroke-width: 2.11392855644226px"/>
        <path d="M923.11,670.05c-34.16-19.72-34.16-51.7,0-71.42s89.54-19.72,123.7,0,34.16,51.7,0,71.42S957.27,689.77,923.11,670.05Z" style="fill: none;stroke: #fff;stroke-miterlimit: 10;stroke-opacity: 0.2;stroke-width: 2.11392855644226px"/>
        
        
        
        <path d="M1204.28,603.9l-160.55-92.7L824.41,545.14,765.64,671.76l160.55,92.7,219.32-33.93Z" style="fill: none;stroke: #2cd4d9;stroke-miterlimit: 10;stroke-width: 2.11392855644226px"/>
        <polygon points="808.82 588.94 856.17 616.28 856.17 663.39 808.82 636.05 808.82 588.94" style="fill: none;stroke-miterlimit: 10;stroke-width: 2.11392855644226px;stroke: url(#cbc70a67-0b88-436f-9f7f-fc2a44bbb718)"/>
        <polygon points="1289.1 357.93 977.22 538 977.21 479.53 1289.09 299.46 1289.1 357.93" style="fill: url(#720a796d-ecb7-49c1-9959-40e4da474894)"/>
        
        
        
        <polygon points="1289.1 287.49 1289.09 240.95 977.21 421.02 825.36 445.33 825.36 492.08 977.21 467.77 1289.1 287.49" style="fill: none;stroke-linecap: round;stroke-miterlimit: 10;stroke-width: 2.11392855644226px;stroke: url(#a3c52b98-9314-4b14-aa3b-6144129155df)"/>
      </g>
    </g>
  </g>
</svg>