<svg xmlns="http://www.w3.org/2000/svg" xmlns:xlink="http://www.w3.org/1999/xlink" viewBox="0 0 840.42 549.52"><defs><style>.cls-1,.cls-14,.cls-17,.cls-18,.cls-19,.cls-21,.cls-23,.cls-24,.cls-6,.cls-7{fill:none;}.cls-1{clip-rule:evenodd;}.cls-12,.cls-13,.cls-15,.cls-16,.cls-2,.cls-8{fill:#ececec;}.cls-14,.cls-19,.cls-2,.cls-20,.cls-21,.cls-22,.cls-24{fill-rule:evenodd;}.cls-3{clip-path:url(#clip-path);}.cls-20,.cls-4{fill:#231f20;}.cls-5{fill:#fff;}.cls-6,.cls-7{stroke:#fff;}.cls-13,.cls-14,.cls-15,.cls-17,.cls-21,.cls-23,.cls-24,.cls-6,.cls-7,.cls-8{stroke-miterlimit:10;}.cls-6{stroke-width:2px;}.cls-7{stroke-width:2.68px;}.cls-12,.cls-13,.cls-14,.cls-15,.cls-17,.cls-18,.cls-19,.cls-23,.cls-24,.cls-8{stroke:#231f20;}.cls-9{fill:#385fac;}.cls-10,.cls-22{fill:#071b2c;}.cls-11{fill:#499dd6;}.cls-12,.cls-14,.cls-17,.cls-18,.cls-19,.cls-21{stroke-linecap:round;}.cls-12,.cls-18,.cls-19{stroke-linejoin:round;}.cls-13{stroke-width:1.2px;}.cls-15{stroke-width:0.87px;}.cls-21{stroke:#071b2c;}.cls-23,.cls-24{stroke-width:0.5px;}</style><clipPath id="clip-path"><path class="cls-1" d="M456.31,509.22c271,49.11,331.63-35.52,368-132.55C870.59,253.32,817.21,113.36,663,86.08,514.91,59.87,512-63.67,289.4,42.19-27.29,192.83-18.68,346.89,26.59,433.1,121.39,613.65,185.3,460.11,456.31,509.22Z"/></clipPath></defs><title>landing-illustration</title><g id="Layer_2" data-name="Layer 2"><g id="Layer_1-2" data-name="Layer 1"><path class="cls-2" d="M456.31,509.22c271,49.11,331.63-35.52,368-132.55C870.59,253.32,817.21,113.36,663,86.08,514.91,59.87,512-63.67,289.4,42.19-27.29,192.83-18.68,346.89,26.59,433.1,121.39,613.65,185.3,460.11,456.31,509.22Z"/><g class="cls-3"><rect class="cls-4" x="10.59" y="419.17" width="76.18" height="13.88"/><rect class="cls-4" x="284.94" y="419.17" width="88.39" height="16.89"/><rect class="cls-5" x="215.15" y="49.34" width="11.21" height="326.55"/><rect class="cls-6" x="334.19" y="207.53" width="114.84" height="163.01"/><rect class="cls-5" x="323.61" y="201.9" width="399.57" height="10.47"/><rect class="cls-7" x="448.61" y="43.8" width="274.57" height="326.74"/><polyline class="cls-6" points="723.17 20.08 723.17 43.8 323.61 43.8 323.61 11.84"/><rect class="cls-5" x="529.69" y="161.97" width="15.04" height="39.92"/><rect class="cls-5" x="534.34" y="152.89" width="5.73" height="11.09"/><path class="cls-5" d="M488.86,186.78a13.52,13.52,0,0,1-27,0Z"/><rect class="cls-5" x="468.28" y="197.91" width="14.12" height="3.59"/><path class="cls-5" d="M518.52,186.78a13.52,13.52,0,1,1-27,0Z"/><rect class="cls-5" x="497.95" y="197.91" width="14.12" height="3.59"/><path class="cls-5" d="M583.39,186.78a13.52,13.52,0,1,1-27,0Z"/><rect class="cls-5" x="562.82" y="197.91" width="14.12" height="3.59"/><path class="cls-5" d="M680.78,186.78a13.52,13.52,0,1,1-27,0Z"/><rect class="cls-5" x="660.2" y="197.91" width="14.12" height="3.59"/><path class="cls-5" d="M680.78,178.46a13.52,13.52,0,1,1-27,0Z"/><rect class="cls-5" x="660.2" y="189.59" width="14.12" height="3.59"/><path class="cls-5" d="M680.78,170.15a13.52,13.52,0,0,1-27,0Z"/><rect class="cls-5" x="660.2" y="181.27" width="14.12" height="3.59"/><path class="cls-5" d="M680.78,161.83a13.52,13.52,0,1,1-27,0Z"/><rect class="cls-5" x="660.2" y="172.96" width="14.12" height="3.59"/><path class="cls-5" d="M680.78,153.52a13.52,13.52,0,0,1-27,0Z"/><rect class="cls-5" x="660.2" y="164.64" width="14.12" height="3.59"/><path class="cls-5" d="M680.78,145.2a13.52,13.52,0,1,1-27,0Z"/><rect class="cls-5" x="660.2" y="156.33" width="14.12" height="3.59"/><path class="cls-5" d="M711.48,186.78a13.52,13.52,0,1,1-27,0Z"/><rect class="cls-5" x="690.9" y="197.91" width="14.12" height="3.59"/><path class="cls-5" d="M711.48,178.46a13.52,13.52,0,1,1-27,0Z"/><rect class="cls-5" x="690.9" y="189.59" width="14.12" height="3.59"/><path class="cls-5" d="M711.48,170.15a13.52,13.52,0,0,1-27,0Z"/><rect class="cls-5" x="690.9" y="181.27" width="14.12" height="3.59"/><path class="cls-5" d="M711.48,161.83a13.52,13.52,0,1,1-27,0Z"/><rect class="cls-5" x="690.9" y="172.96" width="14.12" height="3.59"/><path class="cls-5" d="M711.48,153.52a13.52,13.52,0,0,1-27,0Z"/><rect class="cls-5" x="690.9" y="164.64" width="14.12" height="3.59"/><path class="cls-5" d="M492.18,57.3,486,55.81s-9.21-4.61-11.9,1.92,5.76,16.12,5.76,22.65S478.69,92.67,471.78,98s-6.53,46.46-1.16,48,3.46-10.37,12.29-10,5,13.44,10,11.9,11.52-37.24,6.53-43.77S483.3,85.76,483.3,76.93s-4.23-14.59,1.53-16.13S492.18,57.3,492.18,57.3Z"/><rect class="cls-5" x="479.67" y="43.87" width="1.78" height="20.25"/><path class="cls-5" d="M537,57.3l-6.2-1.49s-9.22-4.61-11.9,1.92,5.76,16.12,5.76,22.65S523.45,92.67,516.54,98s-6.53,46.46-1.15,48,3.46-10.37,12.29-10,5,13.44,10,11.9,11.52-37.24,6.53-43.77-16.13-18.43-16.13-27.26-4.22-14.59,1.54-16.13S537,57.3,537,57.3Z"/><rect class="cls-5" x="524.43" y="43.87" width="1.78" height="20.25"/><path class="cls-5" d="M579.94,57.3l-6.2-1.49s-9.22-4.61-11.91,1.92,5.76,16.12,5.76,22.65S566.44,92.67,559.53,98s-6.53,46.46-1.15,48,3.45-10.37,12.29-10,5,13.44,10,11.9,11.52-37.24,6.53-43.77-16.13-18.43-16.13-27.26-4.22-14.59,1.54-16.13S579.94,57.3,579.94,57.3Z"/><rect class="cls-5" x="567.42" y="43.87" width="1.78" height="20.25"/><path class="cls-5" d="M635.35,56.31s-23.12,3-33,10.61-1.14,66.71,2.28,67.85S630.42,120,634.59,112,635.35,56.31,635.35,56.31Z"/><rect class="cls-5" x="624.62" y="43.87" width="1.78" height="20.25"/><rect class="cls-4" x="736.15" y="371.97" width="68.21" height="8.79"/><rect class="cls-4" x="763.1" y="375.59" width="14.31" height="120.55"/><rect class="cls-4" x="523.15" y="371.97" width="68.21" height="8.79"/><path class="cls-8" d="M755.38,272.52l-5.59,12.18s-1.36,2.38-3.55,5.73c-.35.54-.73,1.12-1.15,1.7v0c-5.29,7.8-14.1,19.11-21.31,19.12-7.44,0-38.76-48.48-38.76-48.48l13-6.9L724.47,289s19.4-30,21.06-31.85a19.35,19.35,0,0,1,12.25-6.72Z"/><path class="cls-9" d="M705.55,296.82s9.76.78,9.65,6.42c-.11,5.11-6.17,7.72-11.86,7l1.24-2.45s8.46,0,8.37-4.15-7.6-3.87-7.6-3.87Z"/><path class="cls-9" d="M690,313.81c3.71.09,7.42.28,11.12.55,5.31-5.72,6.33-19.6,6.33-19.6l-22.78,0S685.1,307.77,690,313.81Z"/><path class="cls-8" d="M756.76,250.56l20.11-3.6,10.61,2.17,17.6,3.57a15.11,15.11,0,0,1,9.37,6.15l-3.59,35.8-.21,52.7-59.57-5.27,2.37-66.68"/><path class="cls-10" d="M768.08,199.53S764.3,206.6,765,213.8s7.41-14.26,7.41-14.26Z"/><path class="cls-8" d="M787.48,249.13,794,228.56s4.1,3.5,5.64-3.17c1.38-5.93-1.32-6.82-4.84-4.41,0,0,8.43-20.26-9.52-24.32S763.9,217.46,763,223.47c-1.52,10.6,5.42,16.69,10.85,17.95l-1.28,6.45s-1.19,5.63,4.14,6.55C783.84,255.65,787.48,249.13,787.48,249.13Z"/><path class="cls-10" d="M761,199.78a6.44,6.44,0,0,0,2.93,6.18c2,1.27,4.4.14,6.4-1.22,5.41,2.76,16.93-.45,20.76.3s3.67,7.62,2.4,12.43-.84,7.26,0,5.87,4.12-1.51,6.59-.75c0,0,6.73-12.56,5.25-17.79a5.61,5.61,0,0,0-6.5-4.24c.79-.77.19-1.83-.14-2.88a7.49,7.49,0,0,0-8.67-5.1l-29.76-.15Z"/><path class="cls-10" d="M758,479.83l4.24,12.83s-14.8,9.34-15.91,8.7,4.73-10.47,4.73-10.47l-3-9.13Z"/><path class="cls-10" d="M712.23,482.17l4.39,13.33s-17.16,3.39-18,2.39,6.5-8,6.5-8l-2.86-9.48Z"/><path class="cls-9" d="M810.65,347.35l-59.79-9.17S677,341,672.33,350.7,696.41,484,696.41,484l21.79-.7L698.91,373.58Z"/><path class="cls-11" d="M810.65,347.35c.85,25.59-8.15,24.45-25.09,26.59s-54.72,1.75-54.72,1.75l32.6,105.66-20.74,5s-46.48-112.2-42.55-125.16S764.7,343,764.7,343Z"/><path class="cls-8" d="M814.45,258.85c5.14,8.94-7.9,59.75-20.7,65.73s-58.43-9.9-58.43-9.9l.89-15.89,45.95,5.77,11.79-24a50.55,50.55,0,0,1,20.5-21.71Z"/><path class="cls-8" d="M736.21,303.53s-7.85-1.46-11-1.72-11,3.44-11,4.76,5.15,8.11,5.15,8.11h15.91Z"/><path class="cls-8" d="M696.49,256.7a16.19,16.19,0,0,1-2.22-8.55c.3-4.51-2.25.45-2.25,1s-4.51-4.47-5-8.92-7.67.35-7.07,5,1.43,12.75,7.48,15.62Z"/><path class="cls-4" d="M574.14,264.74c1.5-.27,4.93-9,4.77-10.56s.77-4.73.74-6.26c0-3.06-.82-4.64-1.45-7.64-.44-2.1,1-4.84.55-6.92-.61-2.59-2.48-3.8-3.17-6.37s.27-5.35-1.36-7.37c-2.5-3.1-2.53-8-5.75-10.33-2.31-1.68-5.47-1.45-8.15-2.45-2-.74-3.68-2.15-5.73-2.69-3.12-.84-6.37.49-9.32,1.8-4.44,2-8.94,4-12.65,7.13s-6.63,7.54-6.86,12.39c-.16,3.18.81,6.47-.21,9.48a11.25,11.25,0,0,0,0,6.65A57.26,57.26,0,0,1,526.6,248c.21,1.8-1.06,3.39-1.58,5.12-.82,2.72,1.09,13.13,3.55,14.56Z"/><path class="cls-8" d="M637.3,298l9.44-6,11.39,8.61s-7.13,4-11.39,3.55S641,306,641,306Z"/><path class="cls-8" d="M582.9,274.17l19.46,31.05,35.41-9.72,4,13.3s-35.81,14-47.49,10.36-44.72-51.2-41.56-59.35c1.19-3.05,12.14,1.46,19.54,4.93A25.08,25.08,0,0,1,582.9,274.17Z"/><path class="cls-8" d="M544.09,259.08s-12.16,4.8-20.89,12.92l7.36,65.44,43.75-3.71,1-40.29s8.49-11.74-.65-21.1C566.41,263.87,561,256.26,544.09,259.08Z"/><path class="cls-10" d="M608.24,471.25l-1,4.88s22.24,5.43,22.79,4.14-10.92-11-10.92-11l-5.75-1.9Z"/><path class="cls-10" d="M580.78,483l-1.26,4.11s20.93,7.59,21.72,6.44-9.58-11.32-9.58-11.32l-4.94-2.87Z"/><path class="cls-8" d="M574.31,333.73s63.51.68,72.46,19.45c8.49,17.8-27.71,116.07-27.71,116.07l-10.82,2,13.38-108.39s-91.38,14.51-92.26-26.72Z"/><path class="cls-8" d="M568.12,342.79s58.27,3.09,65.32,22.65c4,11-41.78,116.75-41.78,116.75l-10.88.77,27-109.46s-22.83.43-45.58-.4c-21-.76-33.66-12.29-29-37.16Z"/><path class="cls-11" d="M574.31,333.73s30.55.33,52.26,6.8c-10.51,2.19-21.24,5.92-26.93,13.86a23.75,23.75,0,0,0-4.08,10.79c-27.08,1-65.63-2.33-66.2-29Z"/><path class="cls-11" d="M529.36,336.14l38.76,6.65s19.65,1,37.52,5.76a24.86,24.86,0,0,0-6,5.84c-3.92,5.47-4.8,12.31-4.23,19.21-10.27,0-25.25,0-38.44-.5C536,372.34,524.73,361,529.36,336.14Z"/><path class="cls-8" d="M563.89,232.27s7.58-5.22,9.11,2c1.68,7.9-9.25,5.79-9.25,5.79Z"/><path class="cls-8" d="M542.08,261.61l-4.32-21.3s-8.32,3.07-9.14-3.77c-.72-6.09,5.91-6.7,9.17-3.91,0,0-6.23-21.19,12.19-23.3s19.16,23.16,19.37,29.27c.36,10.77-7.25,16.11-12.83,16.77l.58,6.6s.58,5.77-4.85,6.11C545,268.53,542.08,261.61,542.08,261.61Z"/><path class="cls-10" d="M536.35,237.59h.06a.59.59,0,0,0,.53-.65,4,4,0,0,0-5.66-3.15.59.59,0,0,0-.28.79.6.6,0,0,0,.79.28,2.79,2.79,0,0,1,2.56.08,2.83,2.83,0,0,1,1.41,2.13A.6.6,0,0,0,536.35,237.59Z"/><path class="cls-10" d="M533.83,237a.6.6,0,0,0,.48-.24l1.15-1.58a.59.59,0,1,0-1-.7l-1.15,1.58a.6.6,0,0,0,.13.83A.66.66,0,0,0,533.83,237Z"/><path class="cls-10" d="M546.53,224.4a.64.64,0,0,0,.33-.1,5.77,5.77,0,0,1,5.62-.34.59.59,0,1,0,.54-1.05,6.9,6.9,0,0,0-6.81.4.59.59,0,0,0,.32,1.09Z"/><path class="cls-4" d="M527.5,230.21c2.61-6.87,8.07-12.46,12.25-18.4,1.43-2,4.61-4.33,7.21-4.54l6.95-.54,6.29,2.47,5,3.05,4.11,7.25,1.19,5.94-1.58,6s-.37-9.07-6.6-15.34c.37,1.44-1.3,2.91-2.66,3.51s-2.94,1-3.77,2.25c-1,1.43-.55,3.57-1.77,4.8-1.63,1.66-4.76.31-6.6,1.73-2.21,1.71-.6,5.52-2.09,7.89-1,1.55-3.08,2.07-4.2,3.53-1.81,2.33-.44,6-1.94,8.52a5.25,5.25,0,0,1-5.72,2.13,8.84,8.84,0,0,1-5.07-3.89C525.37,241.84,525.48,235.51,527.5,230.21Z"/><path class="cls-8" d="M569,331.43s6.65-6.29,10.42-6.68,13.92,7,13.21,8.77-3.72,6.82-4.6,6.33-.8-2.42-.8-2.42-2.37,3.05-3.29,1.68.63-3.17.63-3.17-5.13,3.25-7.6,1.91l-7,2.08Z"/><path class="cls-8" d="M523.2,272c-5.24,6.12-12.46,51.26-7.74,60.14s54.47,7.79,54.47,7.79l1.69-12.33-40.79-7.83L534.06,291a18.5,18.5,0,0,0-10.86-19Z"/><path class="cls-11" d="M644.67,285.17s-9.76.78-9.64,6.43c.1,5.1,6.16,7.71,11.85,7l-1.23-2.45s-8.47,0-8.37-4.15,7.59-3.87,7.59-3.87Z"/><path class="cls-11" d="M660.28,302.17q-5.58.13-11.13.54c-5.3-5.72-6.32-19.6-6.32-19.6l22.77,0S665.12,296.13,660.28,302.17Z"/><path class="cls-8" d="M642.6,294.79s2.48-5,6.57-5.5.23,2.31.23,2.31l-3.8,4.3"/><path class="cls-12" d="M665.11,288.14a10.74,10.74,0,0,0-2.84-1.7c-1.14-.32-1.72,6.3-.58,7.86a5.91,5.91,0,0,1,1,3.51S665.54,291.09,665.11,288.14Z"/><rect class="cls-4" x="631.8" y="492.68" width="64.84" height="5.78" transform="translate(1328.44 991.15) rotate(-180)"/><rect class="cls-4" x="657.75" y="318.31" width="12.95" height="176.18"/><rect class="cls-4" x="593.12" y="314.68" width="142.2" height="8.79" transform="translate(1328.44 638.14) rotate(-180)"/><polygon class="cls-4" points="685.7 314.68 706.16 314.68 707.85 313.15 684.01 313.15 685.7 314.68"/><rect class="cls-4" x="550.1" y="375.59" width="14.31" height="120.55"/><path class="cls-13" d="M508,278.48c1.11-1.54-.85-5.43-2.34-7.58,1.43-2,1.76-6.8,3-9,6.09,12.56,10.65,17.87,11.1,19.54,1,3.68,1.41,5.75-1.57,5.77s-1.56,4.16-4,3.73-1.55,4.48-3.92,3-1.71-7.28-1.71-7.28S503.71,284.36,508,278.48Z"/><path class="cls-13" d="M471.08,181.56c7.32,4.49,44.94,89.18,44.94,89.18l-11.6,6.34s-8.67-16.55-13.73-20.86-6.65-6.15-6.64-13.94-23-28.59-26.34-37.44S466,178.44,471.08,181.56Z"/><path class="cls-13" d="M451.38,188.34,448,175.5s-4.83,1.31-7-.74c-.89-.86-1.71-4.61-2-10.53,0-.64-2.4-1.18-2.42-1.83-.05-1.27,4.21-5.19,3.84-7.53-1.36-8.58-.64-10.87,1.84-13.3,5.53-5.39,24.87-6.18,27.51,3.21s1.79,13.95-3,27.29l2.93,13.32Z"/><path class="cls-4" d="M403.73,433.61l-4.94,14.9s-15.25.92-15.68,2l21.94,6,5.72-20.95Z"/><polygon class="cls-4" points="519.42 457.77 531.99 457.77 541.1 450.73 529.79 432.19 523.56 435.98 531 449.81 528.69 455.33 519.42 457.77"/><path class="cls-13" d="M488.44,361.29c4.84-.92,6.21-.8,10.95-2.11l35.69,81.67-6.53,4.4L485.89,379.8l-6.59-15.7C482.57,363.46,485.12,361.92,488.44,361.29Z"/><path class="cls-13" d="M425.54,355.39c7.4,2.76,9,5.75,16.68,7.87L441,368.72,407.9,446.06l-7.79-1.54Z"/><path class="cls-11" d="M420.55,355.75l15.32-59.59h56.89l10.07,65.5c-4.82,1.34-9.65,2.58-14.59,3.53-3.43.66-6.85,1.23-10.24,1.89l-15.5-39.84-16.37,38.23C438.24,363.3,428.2,358.61,420.55,355.75Z"/><path class="cls-13" d="M470.1,174.67s-11.67,3.66-17.53,10.39-15.31,26.22-15.52,28.41S440,239.71,440,239.71l-10.5,63.74s44.95,7,67.42,0l-11.76-52.67s1.68-18.53,3.57-20.71-1.47-20.58-2.94-29.13-8.19-18.29-10.5-20.28A43.18,43.18,0,0,1,470.1,174.67Z"/><path class="cls-9" d="M460.83,321.67a.55.55,0,0,0,.3-.09.57.57,0,0,0,.17-.78L455,311a.55.55,0,0,0-.77-.17.57.57,0,0,0-.17.78l6.29,9.78A.56.56,0,0,0,460.83,321.67Z"/><path class="cls-4" d="M456.72,134.08A28.17,28.17,0,0,1,464,132.8a9.65,9.65,0,0,1,6.79,2.41,6.62,6.62,0,0,1,1.22,7.22c6.18,2.54,1.9,13.34,0,18.12s-5.17,11.52-5.17,11.52l-6.33-6.19s4.83-5.62,2.71-8.14-4.33,1.4-4.33,1.4-1.79,1-3.45,1.67l-.71-8.41h0s-6.62,2.2-7.81-3.37c-4.61-.66-10.19-2.56-11.94-6.88-2.23-6.6-2.89-12.5,8.47-11.08S456.72,134.08,456.72,134.08Z"/><ellipse class="cls-4" cx="444.42" cy="154.31" rx="1.32" ry="1.9"/><path class="cls-14" d="M443.37,150s4.41-1.09,7.34,2.14"/><path class="cls-14" d="M441.41,167.82s2.59,1.05,5.68-1.47"/><path class="cls-4" d="M386.38,221.43a1.85,1.85,0,0,0,1.59-2.32l-3.37-12.48-2.73-9.69a1.84,1.84,0,0,0-2.42-1.23l-.67.25a1.85,1.85,0,0,0-1.12,2.27l6.77,21.91a1.85,1.85,0,0,0,1.95,1.29Z"/><path class="cls-13" d="M380.76,209.94c.65.47,1.23,3.35,1.23,3.35l.24,1.39s1.06-.38,1.11,0c0,.13.07.4.13.7,1.49-.18,2.95-.27,2.95-.27a44,44,0,0,1,.51-5.13c.18-.68,1.61-3.71,2.25-1.66l1.4,6,2,2c1,1.43,2.22,7.45,2.22,7.45l35.28,7.73-3.34,13.19S393,231.45,391.21,230.81c0,0-5.18-4.09-6.22-4.87s-4.31-8.88-4.57-9.67C379.69,214.62,380.12,209.47,380.76,209.94Z"/><path class="cls-13" d="M468.9,217.88c-14.73,31.4-21.56,36.47-39.1,29.55-.58-.23-1.11-.46-1.61-.69l-37-15.93L397,219.22l18,4.94s-1.34.09,8.41,2c7.64,1.47,9.23,4.94,9.23,4.94h6.61s16-37.14,21.5-41.72"/><path class="cls-15" d="M266.06,335.44l-37.62,9.87s-8.74,3.53-12.94,7.73c-3,3-8.93,5.71-8,7.07s6-3.26,6.82-3.12-3,5.61-3.58,9.2-1.84,7.06.21,6.78,3.54-8.35,3.54-8.35,3.16-6.11,3.67-5.39-2.11,4.91-2.11,4.91-.62,4.53-.89,6.13c-.21,1.19.88,4.76,1.81,3.44.55-.77.29-3.71.93-5.39a26.5,26.5,0,0,1,3.44-6.19s-2.29,10.33-.85,10.58,2.91-8.31,2.91-8.31,4.44-6.52,6-7.15,24.75-2.5,30.75-2.42,15.73-3.64,16.53-8.35S266.06,335.44,266.06,335.44Z"/><path class="cls-15" d="M284.57,285.05s-14.35,45.19-18.79,48.41-35,9.27-35,9.27l3.52,16.93s42.25-3.69,46.79-6.53,27.23-36.31,27.23-36.31Z"/><path class="cls-4" d="M271.2,514.43s2.21,14.11-4.59,17.37-17.29-2.33-21.36,1.74S264.68,542,264.68,542s25.17-2.24,27.41,0c0,0-2.55-17.77-7.79-27.54S271.2,514.43,271.2,514.43Z"/><path class="cls-9" d="M242.42,405.1l24,112.63h24.36s-5.16-82.71-18.56-96.1L322,424.58S247.83,394.8,242.42,405.1Z"/><path class="cls-15" d="M270.11,225.29s1.51,8.88-.9,11.28,2.71,23.08,2.71,26.7,8.69,0,11.94,0S278.62,221.31,270.11,225.29Z"/><rect class="cls-4" x="177.1" y="356.1" width="22.11" height="193.42"/><path class="cls-4" d="M219.87,490.63s-11.4,19-16.82,21.16-17.91,6.79-14.93,6.79,19.81,1.9,24.15,0a111.6,111.6,0,0,1,13-4.07l6.34-22.39Z"/><path class="cls-11" d="M375,377,322,373.59a64,64,0,0,1-1.82,6.53c-5.79-.07-63.83-.59-79.35,7-16.34,8-27.19,110.56-27.19,110.56l22.59,3.26s14.36-86.28,23.56-86.28c5.55,0,27,4.65,43.22,8.35l-.27.6s6.23,3.5,21.6,4.62c30.44,2.21,37.17-2.76,45.31-7.66C372.68,418.77,375.49,400.66,375,377Z"/><path class="cls-15" d="M375,377c-.87-40.86-23-96.13-59.53-115.34,0,0-30.41,5.1-34.75,11.88-1.83,2.85,2.25,29.28,10.09,47.48,10.84,25.14,26.76,48.9,25.35,56Z"/><path class="cls-4" d="M281.17,209.39s-5.16-2.09-10,10.12,7,28.43,5,36.06l-2,7.63h7.06l3.25-4.3L282.9,271s6.47,5.21,16.72,1.14S318,278.61,318,278.61l17.48-7.6s-2.68-17.73-5.14-23.49,6.77-5.17,5.14-12.38-18.72-35.82-38-30.74S281.17,209.39,281.17,209.39Z"/><rect class="cls-4" x="83.43" y="354.65" width="209.45" height="10.01"/><path class="cls-15" d="M237,299.65s.1-15.92.13-21.16-2.84-9.25-2.83-12.5,9-17.59,10.05-16.49-4.47,9.67-3.19,11c0,0,4.49-13.34,6.06-14.89s2.86-1.07,1.61,3.53-4.28,12.19-3.19,12.2,5.12-18.7,6.48-18.69,1.63.18,1.62,2.26-5.8,17.25-4.44,17.26,3.19-12.87,4.42-14.08,1.62,1.5,1.61,3.26S251.45,266,253,266s1.15-4.84,3.15-6.63c2.43-2.17,1.76,4.72-.32,8.82-1.35,2.66-11,18.66-8,29.12S237,299.65,237,299.65Z"/><path class="cls-9" d="M249.64,326a27.24,27.24,0,1,1-54.48,0Z"/><rect class="cls-9" x="207.69" y="347.05" width="29.42" height="7.26"/><path class="cls-15" d="M229.41,300.69s16.89-11.57,22.3-8.55l2.81,30.13s14.8-25.15,17.55-32.46,6-16.57,8.78-16.23c6.9.86,22.55,39.21,19.16,48.87S252.4,360.11,244.28,357,229.41,300.69,229.41,300.69Z"/><path class="cls-15" d="M163.55,504.3c-2.36-2.68-8-11.23-11-15.7-4,3.73-5.27,12-8.36,16.2,5,6,8.28,9.9,8.28,9.9l1,1.22C157.21,512.56,160.41,508.31,163.55,504.3Z"/><path class="cls-4" d="M83.85,237.38a45.37,45.37,0,0,0-8.69-7.78l-1,1.5c-.3-.74-.66-1.22-1.11-1.36,0,0-11.44-5.73-19.93,4.16s-17.17,34.25-14.25,43.46-4.64,26.29-1.76,33.54S51.41,325.82,56,313.67c0,0-6.57-1.12-5.22-9.34,0,0,14.92-1.38,10.13-5S55,289.27,57.49,282.74s9.89,1.54,13.51-10.85c2-6.94,3.71-18.91,4.08-28.33l8.35,11s3.52,1.62,5.13-2.6S87.38,241.72,83.85,237.38Z"/><path class="cls-15" d="M145.06,529.42s-7.16-10.67-9.38-20.16a89.36,89.36,0,0,1-1.2-8.94c-4.36.31-8.87.63-13.16,2.35C124.16,514.27,126,522,126,522Z"/><path class="cls-9" d="M126.05,411.34c-3.36-15.4-4.09-15.64-7-20.47-1.54-2.56-84.35-13.14-84.35-13.14l-12.13-1.94s-.14,4.57,5.95,11.07S96.06,406.5,96.06,406.5h0c3.58,8.93,15.19,69.45,22.92,101,4.29-1.72,12-2.76,16.38-3.07C133.08,482,129.76,428.34,126.05,411.34Z"/><path class="cls-11" d="M156.74,492.16c-14.23-21.84-34.48-59.62-41.55-74.8-8.77-18.8-14.84-28.82-24.4-28.82L20.87,377.75S7,376.78,6,388c-.55,6.16,9.81,26.05,12,28.36,8.69,9.26,56,4.73,67.54,3.44,0,0,1.17,6.84,13.19,26.17,8.65,13.91,30.92,46,43.73,61.47C145.54,503.25,152.7,495.9,156.74,492.16Z"/><path class="cls-15" d="M49.66,374c-.93-13.07,9.1-35.54,13.85-45.87,4.88-10.59,7.58-35.31.32-45.24s-3-7.83-14-6.79c-3,.28-22.31,10-25.18,18.65s-10.19,26.27-11,46.16c-.3,7.52-8.85,41.57-13,48.2C13.61,394,54.61,382,49.66,374Z"/><path class="cls-4" d="M150.28,513.27l9,17.17c3.65,6.95,3.68,14.19,12.48,10.8s16.06-11,14.53-15.94-15-10.89-17.4-15.39-5.62-5-6.21-2.73S150.28,513.27,150.28,513.27Z"/><path class="cls-4" d="M164.93,541.14c2.24.84,4.37-.09,6.62-1.29,4.79-2.52,14.86-8.88,14.76-14.55a5.61,5.61,0,0,1,.47,4.16C184.34,539.32,168.62,546.44,164.93,541.14Z"/><path class="cls-4" d="M170.27,514.88c3,5.75-3.55,11.84-8.52,8l-.23-.18a114.71,114.71,0,0,1-11.11-9.89c-1.9-1.64-4.45-3.91-1.31-8.48s9.39-8,10.47-6C160.28,499.7,165.81,506.23,170.27,514.88Z"/><path class="cls-4" d="M149.1,504.3c-3.14,4.57-.59,6.84,1.31,8.48a114.71,114.71,0,0,0,11.11,9.89l.23.18a5.79,5.79,0,0,0,1.38.81,3.28,3.28,0,0,1-.38-.27l-.24-.19a112.26,112.26,0,0,1-11.1-9.89c-1.9-1.63-4.45-3.9-1.31-8.47,2.57-3.75,7.25-6.74,9.43-6.56C158.37,496.36,152.21,499.78,149.1,504.3Z"/><path class="cls-4" d="M163.28,523.73S157,510.9,155,511.39a30.75,30.75,0,0,0-4.74,1.88s7.56,12.23,10.7,13.18S163.28,523.73,163.28,523.73Z"/><path class="cls-4" d="M168.1,508.82a.65.65,0,0,1,0,.53c-2.82,6.68-11.47,6.84-11.84,6.85a.6.6,0,0,1,0-1.19c.08,0,8.31-.16,10.84-6.15a.53.53,0,0,1,.73-.29A.57.57,0,0,1,168.1,508.82Z"/><path class="cls-4" d="M171,513.71a.67.67,0,0,1,0,.52c-1.67,4.28-11.11,6.4-11.51,6.49a.56.56,0,0,1-.65-.46.59.59,0,0,1,.43-.7c2.57-.57,9.5-2.71,10.7-5.79a.54.54,0,0,1,.73-.31A.55.55,0,0,1,171,513.71Z"/><path class="cls-4" d="M173.28,517.17a.63.63,0,0,1,.05.45c-1.05,4-10.75,6.94-11.85,7.26a.54.54,0,0,1-.68-.41.59.59,0,0,1,.38-.72c2.83-.84,10.34-3.64,11.08-6.45a.54.54,0,0,1,.68-.41A.56.56,0,0,1,173.28,517.17Z"/><path class="cls-4" d="M164,529.91s1.38,7.78,3.23,8.34,17.06-8.86,15.58-11.69-7.88-6.34-9.48-5.95S164,529.91,164,529.91Z"/><path class="cls-4" d="M114.76,538.82l15.18,4.3c6.24,1.78,16,5.4,19.13,6.28s16.37-3.68,16.26-6.43-10.53-5-15.18-9.4S139.39,515.86,137.6,517s-11.24-1-13.5.37S113.62,536.71,114.76,538.82Z"/><path class="cls-4" d="M165.33,543a1.3,1.3,0,0,0-.2-.61c-4,1.52-11.23,3.83-16.33,3.14-6.12-.82-26.1-9-33-11.83-.89,2.53-1.36,4.53-1,5.15l15.18,4.3c6.24,1.78,16,5.4,19.13,6.28S165.44,545.72,165.33,543Z"/><path class="cls-4" d="M137.38,532.28a1,1,0,0,0,1.32.5,50.56,50.56,0,0,1,8.92-3.42c-.47-.57-1-1.17-1.44-1.79a53.05,53.05,0,0,0-8.33,3.3A1.1,1.1,0,0,0,137.38,532.28Z"/><path class="cls-4" d="M137.34,527.19a.94.94,0,0,0,1.4,0,25.58,25.58,0,0,1,4.8-3.87c-.44-.57-.88-1.12-1.3-1.64a26.33,26.33,0,0,0-4.92,4A1.11,1.11,0,0,0,137.34,527.19Z"/><path class="cls-15" d="M69.91,260.52l-8,19.66S71.16,299,61.19,299c-1.64,0-13.6-21.16-13.6-21.16l13.81-27Z"/><path class="cls-15" d="M82,270.08c-.41,1.14-1.11,1.33-1.78,2.93s-2,5.95-10,.38c0,0-11.65-8.8-10.94-13s.33-20.78,7.2-23.88,11.68-1.31,11.68-1.31,6.16,4.08,6.66,8.21-2.06,12.35-1,15a9.28,9.28,0,0,0,2.44,3.75s0,1.45-2.11,1.63-.69,2-1.06,2.64C83,266.43,82.53,268.43,82,270.08Z"/><path class="cls-15" d="M85.35,363c-4.2-4.2-17.06-5.73-17.06-5.73l-3.77,9.05a57.11,57.11,0,0,1,6.91.89c1.53.64,6,7.15,6,7.15s1.48,8.56,2.92,8.31-.85-10.57-.85-10.57a26.47,26.47,0,0,1,3.43,6.18c.64,1.68.38,4.63.93,5.4.93,1.31,2-2.26,1.82-3.45-.27-1.59-.89-6.12-.89-6.12s-2.62-4.2-2.11-4.92,3.66,5.39,3.66,5.39,1.49,8.07,3.54,8.35.83-3.19.21-6.78-4.4-9.05-3.58-9.19,5.87,4.47,6.83,3.11S88.33,366,85.35,363Z"/><path class="cls-15" d="M38.43,278.61s12.27,4.65,10.84,18.15c-.53,4.94-16.52,52.49-14.8,58.19s29.61,2.18,37.68,2.18v11.53s-55.65,7.87-58.59,4.93S17.24,275,38.43,278.61Z"/><path class="cls-16" d="M66.68,242.7s-.27-6.44-1.8-5.75-5.13,8.47-1.58,10.91S66.68,242.7,66.68,242.7Z"/><path class="cls-4" d="M83.32,234.09c-4.43-3.69-7.21-4.91-8.69-5.31l0,0s-10.51-3.34-17.42,2.1c0,0-2,1.41-5,3.7-3.41,2.42-7.9,7.22-18.52,6.23C21.28,239.64,13.38,254,11.17,264.2c-2.15,9.9-.61,6.4-2.65,15-1.33,5.62-8.87,7-3.09,10.6,0,.11-1.28,9.61-1.33,9.72C.19,309.82,14.25,302.74,14,313.15s-12,7.14-12,7.14c23.59,19.2,48.08-12.77,43.69-23.86S44.49,284,56.42,270c9.77-11.41,4.88-16.28,4.88-16.28l-.22-1.27c.54-2.6,1.33-4.83,3-5.05,3.56-.46,7.07,4.41,11.46-1.21,1.76-2.25,2.13-5.41,1.88-8.43,2.13.72,4.3,1.4,5.66,2,3.27,1.41,5.91,10,5.91,10S90.46,240,83.32,234.09Z"/><polygon class="cls-11" points="126.67 344.8 126.3 345.15 103.42 322.82 105.22 321.08 126.67 344.8"/><polygon class="cls-11" points="127.89 343.43 127.5 343.77 105.76 320.33 107.65 318.68 127.89 343.43"/><path class="cls-5" d="M165,333c0,10.63-12.19,19.25-27.24,19.25s-27.24-8.62-27.24-19.25Z"/><rect class="cls-5" x="123.06" y="347.05" width="29.42" height="7.26"/><polygon class="cls-11" points="185.53 354.68 171.74 354.68 169.74 324.17 187.53 324.17 185.53 354.68"/><rect class="cls-11" x="171.54" y="307.5" width="2.18" height="29.06" transform="translate(-96.96 75.4) rotate(-19.35)"/><rect class="cls-4" x="609.4" y="311.16" width="30.48" height="3.43" rx="1.72"/><rect class="cls-4" x="669.72" y="239.33" width="28.44" height="13.68" rx="2.39" transform="translate(66.56 629.85) rotate(-51.65)"/><rect class="cls-5" x="672.87" y="240.67" width="21.9" height="11.28" transform="translate(66.4 629.81) rotate(-51.65)"/><rect class="cls-4" x="104.09" y="348.34" width="35.75" height="5.01" rx="2.51"/><ellipse class="cls-4" cx="79" cy="255.25" rx="1.25" ry="2.15"/><path class="cls-4" d="M82.46,266.64a9.76,9.76,0,0,1-4.55-2.59c-1.79-2-2.06,1.79-1,3.31s2.5,3.66,4.11,3.75C81,271.11,83.18,269,82.46,266.64Z"/><path class="cls-17" d="M80.47,249.73a5.63,5.63,0,0,0-7.2,2.71"/><ellipse class="cls-4" cx="565.61" cy="231.66" rx="1.44" ry="1.8" transform="translate(-26.75 81.04) rotate(-8.01)"/><ellipse class="cls-4" cx="557.68" cy="232.92" rx="1.5" ry="1.88" transform="matrix(0.99, -0.14, 0.14, 0.99, -27.01, 79.95)"/><path class="cls-18" d="M563.22,233.69a7.51,7.51,0,0,0,2.13,3.19c1,.73-.86,2.46-.86,2.46"/><path class="cls-19" d="M563.69,228a4.79,4.79,0,0,1,4.68-.24l.31.19"/><path class="cls-19" d="M558.18,229s-5-.67-6.31,3.92"/><path class="cls-20" d="M566.61,241.53s-1.13,1.4-7.17.6-.2,5.11,2.12,4.85,4.45-.67,5.32-2.19S568.41,241.66,566.61,241.53Z"/><path class="cls-21" d="M770.68,217.69a3.12,3.12,0,0,0-4.7-1.07"/><path class="cls-21" d="M780.91,219.93s-2-3.92-6.16-1.4"/><path class="cls-21" d="M771.74,219.4s-1.6,3.52-3.2,4.16.75,2.25.75,2.25"/><path class="cls-22" d="M764.8,226.66s5.13,3.1,9.61,2.46-3.95,7.15-6.62,4.8S763.73,228.8,764.8,226.66Z"/><rect class="cls-4" x="320.66" y="431.43" width="16.94" height="87.89"/><rect class="cls-4" x="34.1" y="431.43" width="16.94" height="87.89"/></g><circle class="cls-23" cx="122" cy="351.34" r="105.24"/><circle class="cls-23" cx="122" cy="351.34" r="82.56"/><path class="cls-24" d="M122,411.22a59.88,59.88,0,1,1,59.88-59.88A59.95,59.95,0,0,1,122,411.22Z"/><path class="cls-24" d="M122,397.05a45.71,45.71,0,1,1,45.71-45.71A45.77,45.77,0,0,1,122,397.05Z"/><circle class="cls-23" cx="122" cy="351.34" r="31.53"/><circle class="cls-23" cx="684.56" cy="245.76" r="105.24"/><circle class="cls-23" cx="684.56" cy="245.76" r="82.56"/><path class="cls-24" d="M684.56,305.64a59.88,59.88,0,1,1,59.88-59.88A60,60,0,0,1,684.56,305.64Z"/><path class="cls-24" d="M684.56,291.46a45.71,45.71,0,1,1,45.71-45.7A45.76,45.76,0,0,1,684.56,291.46Z"/><circle class="cls-23" cx="684.56" cy="245.76" r="31.53"/><circle class="cls-23" cx="378.8" cy="203.83" r="105.24"/><circle class="cls-23" cx="378.8" cy="203.83" r="82.56"/><path class="cls-24" d="M378.8,263.71a59.88,59.88,0,1,1,59.89-59.88A60,60,0,0,1,378.8,263.71Z"/><path class="cls-24" d="M378.8,249.54a45.71,45.71,0,1,1,45.71-45.71A45.75,45.75,0,0,1,378.8,249.54Z"/><circle class="cls-23" cx="378.8" cy="203.83" r="31.53"/></g></g></svg>