<?xml version="1.0" encoding="utf-8"?>
<!-- Generator: Adobe Illustrator 22.1.0, SVG Export Plug-In . SVG Version: 6.00 Build 0)  -->
<svg version="1.1" id="Layer_1" xmlns="http://www.w3.org/2000/svg" xmlns:xlink="http://www.w3.org/1999/xlink" x="0px" y="0px"
	 viewBox="0 0 557.2 347.4" style="enable-background:new 0 0 557.2 347.4;" xml:space="preserve">
<style type="text/css">
	.st0{fill:#ECECEC;}
	.st1{clip-path:url(#SVGID_2_);}
	.st2{fill:#BCBEC0;}
	.st3{fill:none;stroke:#FFFFFF;stroke-miterlimit:10;}
	.st4{fill:#231F20;}
	.st5{fill:#ECECEC;stroke:#231F20;stroke-miterlimit:10;}
	.st6{fill:#393863;}
	.st7{fill:#385FAC;}
	.st8{fill:#499DD6;}
	.st9{fill:#49488A;}
	.st10{fill:none;stroke:#231F20;stroke-linecap:round;stroke-miterlimit:10;}
	.st11{fill:#0A262E;}
	.st12{fill:#081B1D;}
	.st13{fill:#491B26;}
	.st14{fill:#274A9F;}
	.st15{fill:none;stroke:#231F20;stroke-miterlimit:10;}
	.st16{fill:#FFFFFF;}
	.st17{fill:#ECECEC;stroke:#231F20;stroke-linecap:round;stroke-miterlimit:10;}
	.st18{opacity:0.55;fill:#BCBEC0;enable-background:new    ;}
	.st19{fill:#0E3A45;}
	.st20{fill:#EF4353;}
	.st21{fill:#ECECEC;stroke:#231F20;stroke-linecap:round;stroke-linejoin:round;}
	.st22{fill:#231F20;stroke:#ECECEC;stroke-miterlimit:10;}
	.st23{fill:#ECECEC;stroke:#231F20;stroke-linejoin:round;}
	.st24{fill:#414042;}
	.st25{fill:none;stroke:#231F20;stroke-linecap:round;stroke-linejoin:round;}
	.st26{opacity:0.3;fill:#231F20;enable-background:new    ;}
</style>
<title>onboarding-viz2</title>
<g>
	<g id="Layer_2_1_">
		<g id="Layer_1-2">
			<path class="st0" d="M554.2,183.4L554.2,183.4c0-67.4-54.7-122.1-122.1-122.1H339c-15,0-30-2.8-44-8.2L179.8,8.7
				c-14-5.4-28.9-8.2-43.9-8.2l0,0C67.3,0.5,11.7,56.1,11.7,124.6c0,0,0,0,0,0l0,0c0,93.1,75.4,168.5,168.5,168.5l0,0h82.4
				c3.1,0,6.3,0.1,9.4,0.4l150.7,11.6c67.2,5.2,125.9-45.1,131.1-112.3C554.1,189.7,554.2,186.5,554.2,183.4z"/>
			<g>
				<defs>
					<path id="SVGID_1_" d="M554.2,183.4L554.2,183.4c0,67.4-54.6,122.1-122.1,122.1c-3.1,0-6.3-0.1-9.4-0.4L272,293.5
						c-3.1-0.2-6.2-0.4-9.4-0.4h-82.4c-93.1,0-168.5-75.4-168.5-168.5l0,0V0.5h542.5V183.4z"/>
				</defs>
				<clipPath id="SVGID_2_">
					<use xlink:href="#SVGID_1_"  style="overflow:visible;"/>
				</clipPath>
				<g class="st1">
					<path class="st2" d="M315,99.6l4.4-9.6c0,0,3.6,1,5.2-0.5c0.6-0.6,1-2.1,1.4-6c0-0.5,0.3-1.2,0.3-1.7s1.9-0.6,1.9-1.1
						c0.1-1-1.7-3.7-1.7-4.8c0-4.9-0.6-9.6-2.4-11.4c-4.1-4.1-18.6-5-20.7,2.1c-2.2,7.3-0.1,15.3,5.4,20.6l-4.1,9.9L315,99.6z"/>
					<path class="st2" d="M328.9,67.5c-7.5,7.9-12.5,18.9-22.9,22.1c-1-4-6.8-13-6.6-17.1s1.7-8.3,4.9-10.8c2.5-1.8,5.6-2.7,8.7-2.6
						C319.2,59.1,325.6,62.1,328.9,67.5z"/>
					<path class="st2" d="M321.5,133.4l2.3,8.9c0,0,19.8-7.4,20.9-7.8c0,0,3.5-2.8,4.2-3.3s2.9-6,3.1-6.5s-4.1-0.8-4.1-0.8
						c0-1.2-0.2-2.3-0.3-3.5c-0.1-0.5-1.1-2.5-1.5-1.1l-0.9,4l-1.3,1.3c-0.7,1-1.5,5-1.5,5L321.5,133.4z"/>
					<path class="st2" d="M319.8,133.1c0,0,2.4-6.7,6.9-4c2.5,1.6,5.8,1.3,8.1-0.6l7.6,1.2l2.4,4.8l-23,9.7L319.8,133.1z"/>
					<polygon class="st2" points="346.6,129.1 349.2,119.3 351.4,111.4 354.2,112.5 349,129.4 					"/>
					<path class="st2" d="M352,124.6c0.5-1.1-0.6-4.6-1-4.3s-0.6,2.1-0.6,2.1l0.4,1.1c0,0-0.7-0.2-0.8,0s-0.3,1.4-0.3,1.4l-0.1,2.3"
						/>
					<path class="st2" d="M355.5,282.7l3.8,11.5c0,0,11.8,0.7,12.1,1.5l-17,4.6l-4.4-16.2L355.5,282.7z"/>
					<polygon class="st2" points="266,301.4 256.3,301.4 249.2,296 258,281.6 262.8,284.6 257,295.3 258.8,299.5 					"/>
					<polygon class="st2" points="331.1,235 352.2,292.4 358.3,291.2 347.9,230.4 347.9,230.4 330.6,176.4 286.6,176.4 278.8,231.3 
						278.8,231.3 253.9,288.3 258.9,291.8 291.9,241.1 294.4,235.2 310,200.5 					"/>
					<path class="st2" d="M324.4,139.4c0,0,5.5-18.3,5.3-20s-7.5-16.8-12-22c-2.9-3.3-7.6-5.7-10.6-6.9c-4.2-2.8-18.8-3.3-20.5-2.2
						s2.3,4.7,1.9,7s-9,5.4-6.1,10.5c1.8,3.2,5.9,6.8,8.6,9.1c-1.2,5.8-2.4,12.5-1.2,17.3c0.5,2.2,2.8,16,2.8,16l-9.1,33.8
						c17.4,5.4,52.1,0,52.1,0L324.4,139.4z"/>
					<polygon class="st2" points="277.4,160.5 337.6,149.9 342.8,183.2 281.8,192.5 					"/>
					<path class="st2" d="M311.3,196.1c-0.1,0-0.2,0-0.2-0.1c-0.2-0.1-0.3-0.4-0.1-0.6c0,0,0,0,0,0l4.9-7.6c0.1-0.2,0.4-0.3,0.6-0.1
						c0.2,0.1,0.3,0.4,0.1,0.6c0,0,0,0,0,0l-4.9,7.6C311.6,196.1,311.4,196.2,311.3,196.1z"/>
					<path class="st2" d="M328.2,178.1c-1.4-0.3-2.4-3.5-2.7-5.5c-1.9-0.4-4.6-2.9-6.4-3.5c3.1,10.3,3.4,15.7,4,16.9
						c1.4,2.6,2.2,4,3.9,2.5s3.1,1.5,4.2,0s3.2,1.7,3.8-0.4s-2.9-5-2.9-5S333.8,179.2,328.2,178.1z"/>
					<path class="st2" d="M298.2,110.6c-1.8,6.4,21.4,67.3,21.4,67.3l9.9-2.5c0,0-3.8-13.9-3.2-19s0.5-7-3.6-11.4s-2-21.4-4.7-28.2"
						/>
					<ellipse class="st2" cx="324.4" cy="76.5" rx="0.5" ry="0.8"/>
					<path class="st2" d="M325.4,73.6c0,0-0.2-0.9-2.4-0.9"/>
					<polyline class="st3" points="56.3,36.5 108.8,36.5 108.8,137.4 17.2,137.4 					"/>
					<rect x="108.4" y="36.5" class="st3" width="105" height="100.9"/>
					<path class="st2" d="M293.7,101c-2.6-3.2-14.9-10-21.9-11.6l-0.4-6.1c0.7-1.1,1.4-2.3,1.9-3.6c2.7-0.6,5.2-6.6,2.9-7.7
						c-0.3-0.1-0.5-0.2-0.8-0.2c0,0,3-10.8,1.8-13.5c-0.5-1.5-2.2-2.3-3.7-1.7c0,0,0,0,0,0c0,0-4-4.8-9.7-3.1s-10.2,5.1-11.1,7.5
						s1.5,8.5,1.5,8.5c-0.5-0.2-1.1-0.3-1.6-0.1c-2.5,0.8-0.8,7,1.8,8c0.3,2,0.9,4,1.9,5.8v6.1c-1.9,0.7-4.4,1.8-7,3.1l0,0
						c-2.8,1.4-5.7,2.9-8.3,4.5l0,0c-4.2,2.5-7.5,4.8-7.7,5.8c-0.3,1.5-0.7,3.6-1.2,6c-3.4,4-9.9,21.7-9.9,24.8s-3.3,32.1,2.2,32.6
						c1.9,0.1,3.8-0.5,5.2-1.8c0.4,3.4,1,6.7,1.5,9.9l0,0c0,0,3.3,6.4,6,8.1c-0.3,10.8-0.6,24.8-1.2,33.9c-2,37.3-3.9,84.8-3.9,84.8
						l-7.5,5.6h11.8l19.4-90.4l5.5-26.4l3.5,0.1l2.3,26.4l9.3,90.4h11.8l-6.6-5.1c3.8-28.3,6.1-56.7,6.9-85.3
						c0.2-8.3,0.3-22,0.2-33.1c1.4-1.9,2.7-3.8,3.8-5.9c0,0,5.5-17.2,7.6-27C300.4,146.2,296.3,104.2,293.7,101z"/>
					<path class="st4" d="M212.4,104.9c-9.5-0.7-18.2-6.1-20.2-15.6c-1.8-8.7,0.9-18.1,7.7-23.9c2.4-2.1,5.2-3.7,8.2-4.7
						c12.8-3.9,23.7,8.8,28.2,19.5c2.4,5.7-1.4,9.6-4.7,13.9C226.9,100.3,220.8,105.5,212.4,104.9z"/>
					<path class="st5" d="M216.7,102.6l-7-8.2c0,0-3.2,2-5.2,1c-0.8-0.4-1.6-1.8-3-5.4c-0.2-0.4-0.6-1.1-0.8-1.6s-2-0.1-2.2-0.6
						c-0.3-1,0.6-4.1,0.3-5.2c-1.3-4.8-2-9.6-0.8-11.8c2.9-5.2,16.8-10,20.9-3.7c4.2,6.6,4.4,14.9,0.5,21.7l6.8,8.6L216.7,102.6z"/>
					<path class="st4" d="M194.2,75.1c9.6,5.7,17.4,15.1,28.6,15.3c-0.1-4.2,3-14.7,1.7-18.6s-4-7.7-7.8-9.2c-3-1-6.2-1.1-9.2-0.1
						C201.3,64.2,195.8,68.9,194.2,75.1z"/>
					<path class="st5" d="M204.3,137l-2.3,9.1c0,0-20.1-7.5-21.3-8c0,0-3.6-2.8-4.3-3.3s-3-6.1-3.1-6.6s4.1-0.8,4.1-0.8
						c0-1.2,0.2-2.4,0.4-3.5c0.1-0.5,1.1-2.6,1.5-1.1l1,4.1l1.4,1.4c0.7,1,1.5,5.1,1.5,5.1L204.3,137z"/>
					<path class="st5" d="M206.1,136.7c0,0-2.4-6.9-7-4.1c-2.6,1.6-5.9,1.4-8.2-0.7l-7.7,1.2l-2.4,4.9l23.4,9.9L206.1,136.7z"/>
					<polygon class="st4" points="178.9,132.7 176.2,122.6 173.9,114.7 171.1,115.7 176.4,132.9 					"/>
					<path class="st5" d="M173.3,128.1c-0.5-1.1,0.6-4.7,1.1-4.3s0.6,2.2,0.6,2.2l-0.4,1.1c0,0,0.7-0.3,0.8,0s0.3,1.5,0.3,1.5
						l0.1,2.3"/>
					<path class="st6" d="M169.8,289l-3.9,11.7c0,0-12,0.7-12.3,1.5l17.3,4.7l4.5-16.5L169.8,289z"/>
					<polygon class="st6" points="260.9,308 270.8,308 277.9,302.4 269,287.8 264.1,290.8 270,301.7 268.1,306 					"/>
					<polygon class="st7" points="194.6,240.4 173.1,298.7 167,297.5 177.6,235.7 177.6,235.7 195.1,180.8 239.9,180.8 247.8,236.6 
						247.8,236.6 273.2,294.6 268,298.1 234.5,246.6 231.9,240.5 216.1,205.2 					"/>
					<path class="st5" d="M201.4,143.2c0,0-5.6-18.7-5.4-20.4s7.6-17,12.2-22.3c2.9-3.4,7.7-5.8,10.8-7c4.3-2.8,19.1-3.3,20.9-2.2
						s-2.4,4.8-1.9,7.2s9.1,5.5,6.2,10.7c-1.9,3.3-6,7-8.8,9.2c1.2,5.9,2.5,12.7,1.3,17.6c-0.5,2.2-2.8,16.3-2.8,16.3l9.3,34.4
						c-17.7,5.5-53.1,0-53.1,0L201.4,143.2z"/>
					<polygon class="st8" points="249.2,164.6 188,153.8 182.7,187.7 244.8,197.1 					"/>
					<path class="st9" d="M214.8,200.9c0.1,0,0.2,0,0.2-0.1c0.2-0.1,0.3-0.4,0.1-0.6c0,0,0,0,0,0l-5-7.7c-0.1-0.2-0.4-0.3-0.6-0.1
						c0,0,0,0,0,0c-0.2,0.1-0.3,0.4-0.1,0.6l4.9,7.7C214.4,200.8,214.6,200.9,214.8,200.9z"/>
					<path class="st5" d="M197.6,182.5c1.5-0.3,2.4-3.6,2.7-5.6c1.9-0.4,4.6-3,6.5-3.6c-3.2,10.5-3.4,16-4,17.2
						c-1.4,2.7-2.3,4.1-4,2.5s-3.1,1.6-4.3,0s-3.3,1.8-3.8-0.4s2.9-5.1,2.9-5.1S191.9,183.6,197.6,182.5z"/>
					<path class="st5" d="M228.1,113.9c1.8,6.5-21.7,68.4-21.7,68.4l-10.1-2.5c0,0,3.8-14.2,3.2-19.4s-0.6-7.1,3.6-11.6
						s2-21.8,4.8-28.6"/>
					
						<ellipse transform="matrix(0.9619 -0.2735 0.2735 0.9619 -14.9369 58.1264)" class="st4" cx="201" cy="82.6" rx="0.5" ry="0.8"/>
					<path class="st10" d="M199.3,80c0,0,0-0.9,2.1-1.6"/>
					<path class="st2" d="M479.1,169.9c0.8-1.1-0.6-3.7-1.6-5.2c1-1.4,1.2-4.7,2.1-6.2c4.2,8.7,7.4,12.3,7.7,13.5c0.7,2.5,1,4-1.1,4
						s-1.1,2.9-2.8,2.6s-1.1,3.1-2.7,2s-1.2-5-1.2-5S476.1,173.9,479.1,169.9z"/>
					<path class="st2" d="M453.6,103c5.1,3.1,31,61.6,31,61.6l-8,4.4c0,0-6-11.4-9.5-14.4s-4.6-4.2-4.6-9.6s-15.9-19.7-18.2-25.8
						S450.1,100.8,453.6,103z"/>
					<path class="st2" d="M440,107.7l-2.3-8.9c0,0-3.3,0.9-4.8-0.5c-0.6-0.6-1.2-3.2-1.4-7.3c0-0.4-1.7-0.8-1.7-1.3
						c0-0.9,2.9-3.6,2.6-5.2c-0.9-5.9-0.4-7.5,1.3-9.2c3.8-3.7,17.2-4.3,19,2.2s1.2,9.6-2.1,18.8l2,9.2L440,107.7z"/>
					<path class="st2" d="M407.1,277l-3.4,10.3c0,0-10.5,0.6-10.8,1.4l15.1,4.1l4-14.5L407.1,277z"/>
					<polygon class="st2" points="487,293.6 495.7,293.6 502,288.8 494.1,276 489.9,278.6 495,288.1 493.4,292 					"/>
					<path class="st2" d="M465.6,227.1c2.5-0.4,5.1-0.8,7.6-1.5l24.6,56.4l-4.5,3l-29.5-45.2l-4.5-10.8
						C461.6,228.5,463.3,227.5,465.6,227.1z"/>
					<path class="st2" d="M422.2,223c5.1,1.9,6.2,4,11.5,5.4l-0.8,3.8L410,285.6l-5.4-1.1L422.2,223z"/>
					<path class="st2" d="M479.3,237.1l-10.7-55h-39.3l-26.9,101.7c3.7,1.5,7.5,2.8,11.3,3.9l33.9-84.1l15.1,39.4l28,46.9l10-5.8
						L479.3,237.1z"/>
					<path class="st2" d="M452.9,98.2c0,0-8,2.5-12.1,7.2s-10.6,18.1-10.7,19.6s2,18.1,2,18.1l-7.2,44c0,0,31,4.8,46.5,0l-8.1-36.4
						c0,0,1.2-12.8,2.5-14.3s-1-14.2-2-20.1s-5.7-12.6-7.2-14C455.2,101.1,454,99.7,452.9,98.2z"/>
					<path class="st2" d="M446.5,199.7c0.1,0,0.2,0,0.2-0.1c0.2-0.1,0.2-0.4,0.1-0.5l-4.3-6.8c-0.1-0.2-0.4-0.2-0.5-0.1
						c-0.2,0.1-0.2,0.4-0.1,0.5l4.4,6.8C446.3,199.6,446.4,199.7,446.5,199.7z"/>
					<path class="st2" d="M443.7,70.2c1.6-0.5,3.3-0.8,5-0.9c1.7-0.1,3.4,0.5,4.7,1.7c1.3,1.3,1.6,3.3,0.8,5c4.3,1.8,1.3,9.2,0,12.5
						s-3.6,8-3.6,8l-4.4-4.3c0,0,3.3-3.9,1.9-5.6s-3,1-3,1s-1.2,0.7-2.4,1.2l-0.5-5.8l0,0c0,0-4.6,1.5-5.4-2.3
						c-3.2-0.4-7-1.8-8.2-4.7c-1.5-4.6-2-8.6,5.9-7.7S443.7,70.2,443.7,70.2z"/>
					<ellipse class="st2" cx="435.2" cy="84.2" rx="0.9" ry="1.3"/>
					<path class="st2" d="M434.5,81.2c1.8-0.4,3.7,0.2,5.1,1.5"/>
					<path class="st2" d="M433.1,93.5c1.4,0.4,2.9,0,3.9-1"/>
					<path class="st2" d="M395.2,130.5c0.7-0.1,1.2-0.7,1.1-1.4c0-0.1,0-0.1,0-0.2l-2.3-8.6l-1.9-6.7c-0.2-0.7-0.9-1.1-1.6-0.9
						c0,0-0.1,0-0.1,0l-0.5,0.2c-0.6,0.2-1,0.9-0.8,1.6l4.7,15.1C393.9,130.2,394.5,130.6,395.2,130.5L395.2,130.5z"/>
					<path class="st2" d="M391.3,122.6c0.4,0.3,0.8,2.3,0.8,2.3l0.2,1c0,0,0.7-0.3,0.8,0c0,0.1,0,0.3,0.1,0.5c1-0.1,2-0.2,2-0.2
						c0-1.2,0.2-2.4,0.4-3.5c0.1-0.5,1.1-2.6,1.5-1.1l1,4.1l1.4,1.4c0.7,1,1.5,5.1,1.5,5.1l24.4,5.3l-2.3,9.1c0,0-23.3-9.1-24.5-9.5
						c0,0-3.6-2.8-4.3-3.4s-3-6.1-3.1-6.7C390.5,125.8,390.8,122.2,391.3,122.6z"/>
					<path class="st2" d="M452.1,128.1c-10.2,21.7-14.9,25.2-27,20.4c-0.4-0.2-0.8-0.3-1.1-0.5l-25.5-11l4-8l12.4,3.4
						c0,0-0.9,0.1,5.8,1.4c5.3,1,6.4,3.4,6.4,3.4h4.6c0,0,11-25.6,14.8-28.8"/>
					<path class="st2" d="M114.9,216c0,0,6.4,41.4,5.9,51.4c-13.3,1.1-19.3-5-19.1-8s-7.3-40.8-7.6-43.1s-5.4-18.6,0.6-21.7
						C114.6,184.5,114.9,216,114.9,216z"/>
					<path class="st2" d="M95.5,201.1c-23.8-8.2-33.1-8.3-28.9,7.1c2.1,7.8,13.3,51.3,11.2,56.2c5.8,3,12.4,4.3,18.9,3.7
						c0,0-0.4-43.2-1.3-47.1S95.5,201.1,95.5,201.1z"/>
					<path class="st2" d="M95.4,264.2c1.4,4.2,2.5,6.5,1.2,9.1s-7.6,1.7-11.3-0.1c-2.2-1-7.1,0.8-9.6,0.7c-5.4-0.1-8.9-6.1-4.5-6.5
						c3.9-0.4,7.7-1.8,10.9-4.1C84.1,261.7,95.4,264.2,95.4,264.2z"/>
					<path class="st2" d="M117,263.8c0.5,2.7,2.7,5.4,0.5,7.1s-4.4,1.7-7.1,1s-3.7-2.2-5.2-3.4s-5.4-2-6.6-3.7s-2.2-6.6,0-6.1
						s8.6,1.2,8.6,1.2L117,263.8z"/>
					<polygon class="st2" points="162.3,279.8 164.7,279.8 154.7,218.7 153.6,210.8 115.4,218.9 117.8,290.4 120.9,290.1 
						122.3,226.8 149,220.7 					"/>
					<path class="st2" d="M83.2,205.8l32.9,4.6l4.3-0.6c5.1-0.6,10.3-0.2,15.3,1l18-1.7v8c0.5,2.1-0.8,4.1-2.8,4.6
						c-0.1,0-0.2,0.1-0.4,0.1c0,0-27.1,6.7-31,5.4l-37.2-9.6L83.2,205.8z"/>
					<path class="st2" d="M115.4,216.1c5.6,1.2,9.6-0.9,14.4-1.4l20-3.6c4.7-0.5,5.8-2,2.4-3.4l-18.3-2.2c-4.6-1.9-9.6-2.7-14.6-2.4
						L87,205.1c-5.6,0.6-8.3,1.9-3.6,3.4L115.4,216.1z"/>
					<path class="st2" d="M123.7,111.5c-0.3,2.7,1.6,11.9,3.4,15.6c1.8,3.7,7.5,8,7.5,8l-21,8.5c0,0-1-15.2-5.7-17.2
						C105,125.3,123.7,111.5,123.7,111.5z"/>
					<path class="st2" d="M98.1,112.1c1.7,8.9,6.1,18,10.2,18.2s13.5-6.9,14-14.8s-4.6-15.1-12.4-14.4
						C101.5,102,96.6,104.3,98.1,112.1z"/>
					<path class="st2" d="M97.4,112.3c-4.7-5.5,7-20.1,18.7-16.8s12.5,7.7,12.3,13.8s-2.2,11.9,0.7,14c2,1.4-17.2,6.1-17.2,6.1
						s-5.7-5.9-5.5-7.3c1.2-7.3-2.3-7.9-2.7-5.4c-0.3,1.9-0.3,2.1-0.3,2.1l-0.6,0.6c0,0-1.1-6-3-8.1
						C98.7,110.3,97.4,112.3,97.4,112.3z"/>
					<path class="st2" d="M128.9,128.5c6.8,3.7,12,5.4,15.8,5.9c0,0,2.9,0.1,3.4,1.3c6.6,15.8-7,29-6.3,35.2
						c2.9,25.4-4.8,34.3-5.7,37.5c-0.4,1.6-9.4,3.5-18.5,3.7c-5,1.6-25.7-4.6-27.4-6c-0.8-2.1,1-6.9,2.3-12.3
						c3.2-13.4,8.2-22.5,7.6-29.5c-0.4-5.1-14.7,3.5-16.2,0.6s9.5-17.2,9.5-17.2s1.6-6.3,14.7-12.6c2.5-1.2,4.8-2.6,7-4.2
						L128.9,128.5z"/>
					<polygon class="st2" points="80.2,213.4 69.2,278.5 71.1,278.3 86.4,218.4 					"/>
					<path class="st2" d="M127.8,126.1c-0.7,0.3-13.7,4.4-18,4.2c-1,1.3,1.4,4.5,1.4,4.5s16.9-4.9,17.4-5.7S127.8,126.1,127.8,126.1
						z"/>
					<path class="st2" d="M130.2,126.2l4.5,4.6c0,0-9.4,4.1-12.7,5c-4.8,1.1-9.7,1.5-14.7,1.1l1.8-4.4c0,0,3.9,0.3,14.1-3.3
						C126.1,128.2,130.2,126.2,130.2,126.2z"/>
					<path class="st2" d="M113.8,208.5c0,3.6,3.4,6,9.7,5.5l22.5-4.3c7.1-0.9,8.2-2.9,9-6.7l8.2-53.1c1.3-5.8-2.5-10.4-10.7-9.6
						l-24.7,3.5c-8.1,0.7-9,5-9.1,10.6L113.8,208.5z"/>
					<path class="st2" d="M57,126c-2.5-6.4-3.8-9.9,2.5-15c2.1-1.4,4.4-2.6,6.8-3.6c12.2-3.1,15.4,4.3,17.3,13.2
						c1.8,8.2-0.5,14.4-3.5,17.6l1.3,4.7l-15.4,2.2c0.1-2-0.3-3.9-1.1-5.7c-2.6,0.2-3.7,0.9-7.8-9.9C56.9,128.7,57.3,126.8,57,126z"
						/>
					<path class="st2" d="M63.1,246.1c-2.5-2.6-10.2-21.1-11.9-27c-10.4-37.6-13.8-1.2-10,3.3c9,10.8,11,26.7,12.4,29.6
						C56.4,258.4,63.1,246.1,63.1,246.1z"/>
					<path class="st2" d="M52.4,247.1c1.3-2.8,5.8-4.1,9.2-4.4c1.5,1.4,2.7,3.2,3.4,5.1c0.9,2.7,0.1,4.5-1.5,5.8
						c0.1,3.7,0.9,7.4,2.3,10.8c0,0,0.7,0-1.6,0.3c-0.4-2.3-3.2-6.4-6-8.9C54.5,256.7,51.1,249.9,52.4,247.1z"/>
					<polygon class="st2" points="39.3,230.4 44.5,247.4 62.4,239.2 59.5,229 					"/>
					<path class="st2" d="M26.4,262.5c0.7,1.1-1.4,14-2.9,16.2s14.6-14.1,14.6-14.1L36,254.3L26.4,262.5z"/>
					<path class="st2" d="M27.3,277c-0.8,0.1-5.8-2.8-7.1-1.5c-0.8,0.8-1.5,7.7,1.8,7.6C24.9,283,27.3,277,27.3,277z"/>
					<path class="st2" d="M20.9,279.5c2.5-1.3,5.9-7.2,8.9-12c0.3-0.6,0.6-1.2,1.1-1.7c2.4-2.7,6.8-3.1,7.6-2.6
						c3.5,2.2,2.7,9.5,0.7,10c-1.9,3.4-2.9,7.2-2.8,11.1c-0.9,0.1-1.3,0.1-1.3,0.1s-0.3-6.1-0.9-10c-1.7,3.8-2.4,8.6-4,9.2
						c-2.9,1.1-9.6-0.3-9.6-0.3S18.7,280.6,20.9,279.5z"/>
					<path class="st2" d="M35.4,196.6c-7.8-4.6-26.2-10.4-20.2,10.2c2.1,7.2,7.9,58.6,7.9,58.6l15.8-4.7c0,0,0.5-51.8-3.1-58
						S35.4,196.6,35.4,196.6z"/>
					<path class="st2" d="M7.5,297.8l-1.9,0.4l8.9-70c-0.1-0.1-0.1-0.1-0.1-0.2v-11.1L51,222l4.7-0.6c5.7-0.6,11.4-0.2,17,1.1
						l23.1,0.2l0.3,10.3l7.3,66.2l-2.8,0.1l-12.5-63.1c-6.7,1.1-24,3.2-32.8,3.9l-6.2,67.9l-3,0.2l1.4-68.3l-26.9-7.6L7.5,297.8z"/>
					<path class="st2" d="M48.9,227.8C53.3,229.3,92,224,92,224c5.2-0.6,6.4-2.2,2.6-3.8c0,0-34.2-6.9-40.1-6.3l-34.9,1
						c-6.2,0.6-7,2.6-1.7,4.3L48.9,227.8z"/>
					<path class="st2" d="M63,215.2c-8,5.3-15.8,9.6-27.8,3.6S10.8,194,10.6,190.4c-0.6-9.1,5.4-15.4,16.8-5.1
						c8.6,7.8,16.5,7.2,18.4,5.4S63,215.2,63,215.2z"/>
					<polygon class="st2" points="27.3,193.6 56.2,190.8 30.8,166.8 0,167.9 					"/>
					<polygon class="st2" points="29.1,189.1 50.5,187.1 31.2,169.1 7.5,170 					"/>
					<path class="st2" d="M18.9,169.5c0.6-0.9,1.3-1.7,2-2.5c0.6,0.6,1.1,1.3,1.5,2.1c0,0.2-0.3,1.2-1,1.2
						C20.6,170.1,19.7,169.8,18.9,169.5z"/>
					<path class="st2" d="M29.3,176.4c0,0,0.1,0.4,0.1,0.5s-0.5-0.2-0.5-0.2L29.3,176.4z"/>
					<path class="st2" d="M29.4,176.4c-0.3-0.7-0.6-1.3-1-1.9l-1,0.8c0.5,0.5,1.1,1,1.6,1.4L29.4,176.4z"/>
					<path class="st2" d="M28.3,174.6c-0.3-0.6-6-8.2-6-8.2l-1.7,1.4c0,0,6.2,7.2,6.7,7.6C27.7,175.1,28,174.9,28.3,174.6z"/>
					<path class="st2" d="M16.7,161.1L16.7,161.1l0.8-0.7c-0.1-0.1-0.8-1.1-1.7-0.4l0,0l0,0l0,0c-0.9,0.7,0,1.7,0,1.8L16.7,161.1
						L16.7,161.1L16.7,161.1z"/>
					<path class="st2" d="M22.2,167.7c0-0.1-4.6-7.2-4.9-7.4c-0.4,0.3-0.7,0.5-0.9,0.7s-0.5,0.4-0.8,0.7c0.1,0.3,5.1,6.3,5.1,6.3
						L22.2,167.7z"/>
					<path class="st2" d="M22.3,166.4l-0.8,0.6l6.4,7.9c0.3-0.2,0.4-0.4,0.5-0.4C28,174,22.3,166.4,22.3,166.4z"/>
					<path class="st2" d="M22,167.1l0.6-0.4c0-0.1-4.9-6.3-5.2-6.5l-0.8,0.7l5.2,6.5H22L22,167.1z"/>
					<path class="st2" d="M15.8,160l0.7,0.9l0.8-0.7C17,159.8,16.3,159.7,15.8,160z"/>
					<path class="st2" d="M24.8,179.2c-1.7-0.7-4.8-1.7-5.5-3.7s-1.2-5,0-6.6s1.4-0.3,2.6,0.2c0.9,0.4,1.8,0.6,2.8,0.4
						c0,0-2.4-2.5-1.6-2.8s0.9,0.4,2.1,1.3c1.1,0.9,2.2,1.9,3.2,3c1.2,1.5,2.2,3.2,3,5L24.8,179.2z"/>
					<path class="st2" d="M25.3,173.2c0.9-0.5,2.1-0.4,2.9,0.2l2.7,0.2c0,0,4.9,2.3,5.4,1.5c1.4-2.4,5.9-12.7,8.3-17.2
						c2.6-4.9,8-8.5,8-8.5c5.9-0.7,11.7,1.3,9.9,10.3c-3.1,14.6-21.2,26.7-23.7,27.8c-5.6,2.5-16.4-6.8-16.4-6.8
						C22.6,179,22.8,174.5,25.3,173.2z"/>
					<path class="st2" d="M36,172.5c2.4-4.2,9.8-16.1,12.2-20.7c4.9-5.7,5.4-2.1,5.4-2.1c-4.8,11.5-16.5,28.5-17.9,30.2
						c-0.9,1.2-7.9-4.2-11.2-6.1c-0.4-0.2,1.5-2.1,3.6-2.7c2.2-0.4,3.7,1.8,6.4,2.3C35.1,173.3,35.7,173,36,172.5z"/>
					<path class="st2" d="M32.8,200.5c4.6-3.2,8.3-15.2,8.3-15.2s9.1-35.1,10.2-35.5c3.2-1.3,7-2.7,10-3.9c-1-0.7-1.7-1.6-2.3-2.6
						c3.2-2.5,16.9-4.6,20.6-4.9l0.4,1.5l5.3-1.2c1.3,4,7,7,10.2,8.4s6.1,1.5,4.8,7.8s-32,58.9-34.5,60.1
						C51.5,221.7,30.2,202.3,32.8,200.5z"/>
					<path class="st2" d="M48,221.4c-0.4,4,4.9,6.5,11.8,5.8l26.2-3.6c6.8-0.8,10-2.9,11.3-7l11.5-59.1c2.1-6.4-1.4-11.6-10.4-10.8
						L65.2,151c-7.4,0.5-8,7.2-8.7,13.6L48,221.4z"/>
					<path class="st2" d="M77.8,107.5c-4.1-2.8-11.2-3-15.2-1s-10.9,6-5.4,18.2c5.9,13.1,15,12.7,18.1,12.7c5.5-0.1,7.1-2.5,7.1-2.5
						S91.2,116.6,77.8,107.5z"/>
					<path class="st2" d="M81.6,125c-2.7-1.3-4.8,6.3-5.1,7.6c-6.8-4.4-2.9-11.7,3.7-10.2c2.1,0.4,3.5,2.4,3.1,4.5c0,0,0,0,0,0
						L81.6,125z"/>
					<path class="st2" d="M83.8,125.2c2.1,1.5,8.4,10.6,7,18.7s-6.8,33.1-1.7,37.6c-6.1-2.6-5.7-10.2-5.7-10.2l1.3,8.4
						c0,0-3.8-6.8-4.4-9.8c-0.2,2.6,0.6,5.1,2.4,6.9c0,0-9.1-2.8-8-14.1c1.2-11.9,2.1-19.9,1.7-25.4c-0.7-8.5-2.9-8.8-1.1-11.5
						C77.7,122.2,82.3,124.2,83.8,125.2z"/>
					<path class="st2" d="M76.7,123.6c4,1.1,10.4,5.8,9,18.7s-3.8,24.9-2.7,28c-1.2-2.3-0.8-16,0.3-22.8c-2.2,7.1-2,21.1-0.6,24.5
						c-1.7-2.8-3.9-12.6-3.4-16.5c-0.5,4.8-1.9,14.1-0.8,16.5c-2.6-3.7-1.9-12-1.1-20.6s3.2-19.1-2.8-23.9
						C71.2,124.7,76.7,123.6,76.7,123.6z"/>
					<path class="st2" d="M61.5,106.9c1.5-0.7,3.4-1.3,3.4-1.3c-2,0.5-9.7,7.6-2,15.9c-2.2,0.5-4.6-7.2-4.6-7.2s1,7,6,9.1
						c-1.9-0.1-4.1-1.8-5.6-4.1c1.3,3.2,3.8,5.8,7,7.2c-4.8,0.7-10.3-6.8-10.4-10.3C55.3,112.1,57.8,108.4,61.5,106.9z"/>
					<path class="st4" d="M471.5,143c3.2,0.4-0.5,13.2-5.5,12.4s-2.5-10.4-2.5-10.4S468.1,142.6,471.5,143z"/>
					<path class="st5" d="M480.6,156.3c-1.2-1-2.6-1.9-4-2.6c-2.8-0.9-4.4-1.5-5.5-2.7s-5.7-1-5.7-1c0.5-2.7,1.8-5.1,3.6-7.1
						c0,0,2.3,0.7,3,0.4c1.4-0.5,2.4-2.6,5.1-2.9c2.1-0.4,4.1-1.2,6-2.2c0.6,0.3,0.8,1,0.5,1.6c-0.1,0.1-0.1,0.2-0.2,0.3
						c-1,1.1-3.2,1.5-3.5,2.1c-0.1,0.1-0.1,0.2-0.1,0.4l0,0c-0.1,0.4-0.1,0.9,0.2,1.3c0,0,0,0.1,0,0.1c1.1,1.2,4.7,2,6.3,2.2
						c2.3,0.2,5.4,0.8,4.6,2.1s-1.8-0.1-6.9,0.2l-0.1,0.5c-0.4,0.1,2.9,1.5,6,2.1c2.2,0.5,1.2,1.8,0.4,2s-2.8-0.6-4.4-0.9l-2.8-0.6
						l-0.4,0.6c3.5,2.7,5.2,2.2,5.1,3.4s-3.2,0.4-4.4-0.5c-0.8-0.5-1.7-0.9-2.6-1.2c2.3,2.6,3.6,2.5,3.3,3.5
						S481.4,157.2,480.6,156.3z"/>
					<path class="st5" d="M479.6,142.5c-0.1,0.4-0.1,0.9,0.2,1.3"/>
					<path class="st11" d="M441.7,318.4c0,0.6,0,1.2-0.1,1.8h-30.8c0-0.6,0-1.2,0-1.8c0.3-5.1,1.3-10.2,2.9-15l7.7-3.3
						c0.4,3.2,2,6.1,4.5,8.1c0.5,0.4,1.1,0.8,1.8,1.1c0.3,0.2,0.6,0.3,0.9,0.4c0.6,0.3,1.3,0.5,2,0.7c2.4,0.6,4.9,1.1,7.4,1.3
						C441.2,312.2,441.7,316,441.7,318.4z"/>
					<path class="st12" d="M441.7,318.4c0,0.6,0,1.2-0.1,1.8h-30.8c0-0.6,0-1.2,0-1.8H441.7z"/>
					<path class="st11" d="M393,318.4c0,0.6-0.2,1.2-0.3,1.8h-20.5c-0.3-0.6-0.5-1.2-0.6-1.8c-2-9.8,14.5-21.8,14.5-21.8l1.4,5.8
						c0,0-0.5,9.2,3.2,11.1C392.4,314.4,393.3,316.4,393,318.4z"/>
					<path class="st12" d="M371.5,318.4H393c0,0.6-0.2,1.2-0.3,1.8h-20.5C371.9,319.6,371.7,319,371.5,318.4z"/>
					<path class="st8" d="M382.2,159.9c0,19.5-6.3,89.8-6.9,94.8c-1.3,9.6-3.8,57.2-3.8,57.2s10.6-8.6,16.6-2.2l0.6-15.5l18.9-108.5
						l1.8-0.3c0,0,1.3,122.9,1.3,128l18.1-5.1l-2.5-7.2l1-21.5c0,0,5.8-106,7.1-117.7L382.2,159.9z"/>
					<path class="st5" d="M434.5,148.5c7,3.1,31.4,6.9,31.4,6.9c-2.4-8.6,5.5-12.4,5.5-12.4s-21.1-6.2-20.9-7.7s-2.5-1.1-2.5-1.1
						S441.6,89.8,434,80c-6.2-3-12.7-5.3-19.4-7c-3.3-0.8-7.1-0.1-11,0c-2.8,0.1-5.5,0.6-8.2,1.3c-10.1,2.8-17.1,9.4-18.2,14.6
						c-1.3,6.5,4.2,75.8,4.2,75.8s5,4.3,29.3,3.8c18.8-0.4,23.8-4.9,23.8-4.9v-59.5"/>
					<path class="st5" d="M419.5,40.5c-11.4-5.5-19.3-3.2-19.5,12.6c-0.1,2.4,0.3,4.8,1.1,7h-0.6c3.8,7.2-0.5,14.2-0.5,14.2
						c8.2,5.5,12,3.7,12,3.7l3.4-10c1.5-0.4,2.8-1.4,3.6-2.6c1.6-2.8,2.7-5.8,3.1-9c0.2-0.8,0.3-1.7,0.4-2.6
						C423.3,48,422.7,42.1,419.5,40.5z"/>
					<path class="st4" d="M421.9,43.5c0,0,3.6-0.6,5-3.1c-0.8,0.1-1.7,0.1-2.5,0c0,0,1.7-1.2,1.1-4.2c0,0-3.6,0.5-5,0l2-1.5
						c-2.2,0.1-4.5-0.2-6.7-0.7c-3.8-0.9-11.9-1.2-16.6,2.3s-7.9,20.1,2.5,27.2l-0.6-3.6c0,0-1.8-3.3-1.1-5.5s1.9-0.4,1.9-0.4
						s3.6-5.8,3.6-9.7v-3.8C405.5,40.6,417,38,421.9,43.5z"/>
					<path class="st0" d="M401.6,53.2c0,0-2.3-3.2-4.8-1.6s0.9,7.5,3.5,7.5S401.6,53.2,401.6,53.2z"/>
					<path class="st13" d="M395.4,130.9c2.6,0,4.1,11.9-1,13.1C394.4,144.1,388.3,131,395.4,130.9z"/>
					<path class="st5" d="M395.3,141.7c1.1,0.4,8.9,3.2,10.4,3c0.1,0,0.1,0,0.2,0c1.5-0.3,3.2-1.8,4.2-2.1s1.5-1.4,2.4-2.1
						c0.7-0.8,1.3-1.8,1.5-2.9c0,0,3.2-2.9,1.9-3.3c-1.7-0.5-3.6,1.2-3.6,1.2l-4.2,0.7c0,0-5-2-4.8-3s2.3-0.2,4.1-0.3
						c1.2-0.1,1.3-1.4,1.3-1.4l-3.1-0.8c0,0-4.5-0.7-5.5-0.3s-4.5,2.7-4.5,2.7l-6.7-0.1l-1.3,8.8
						C387.6,141.6,394.2,141.2,395.3,141.7z"/>
					<path class="st5" d="M386.2,107.1l-7.6,20.2c0,0,1.5,2.7,0.3,3.2l16.6,0.5c0,0-4.2,4.4-1,13.1c0,0-21.7,6.5-30.9,0
						c-2.7-1.9-4.2-7.3-3.5-11.1c9.2-45.2,23.9-52.9,23.9-52.9"/>
					<ellipse class="st4" cx="412.2" cy="53.1" rx="1.1" ry="1.8"/>
					
						<ellipse transform="matrix(8.993737e-02 -0.9959 0.9959 8.993737e-02 328.801 466.9243)" class="st4" cx="419.9" cy="53.5" rx="1.8" ry="1.2"/>
					<path class="st10" d="M413.2,48.5c-1.7-1-3.9-0.6-5.3,0.8"/>
					<path class="st10" d="M421.7,50.3c-0.6-1.4-2.2-2-3.6-1.4c-0.1,0-0.2,0.1-0.2,0.1"/>
					<path class="st10" d="M416.9,51.9c0,0,0.9,4.2,1.9,5s-1.9,2.1-1.9,2.1"/>
					<path class="st4" d="M417.4,62.3c-1.1-0.5-2.2-0.9-3.4-1.1c-1.6-0.2-1.4,2.2,0.2,3.1c1.6,1,3.5-0.2,4.1-1.2
						S417.4,62.3,417.4,62.3z"/>
					<path class="st4" d="M225.6,113c-1.7-2.6-11.1,6-8.3,9.9s9.9-2.3,9.9-2.3S227.4,115.7,225.6,113z"/>
					<path class="st12" d="M219.4,315.3c0,0.6,0,1.2,0.1,1.7h29.3c0-0.6,0-1.2,0-1.7c-0.3-4.9-1.2-9.7-2.8-14.3l-7.3-3.1
						c-0.4,3.1-1.9,5.8-4.3,7.8c-0.5,0.4-1.1,0.8-1.7,1.1c-0.3,0.1-0.5,0.3-0.8,0.4c-0.6,0.3-1.2,0.5-1.9,0.7c-2.3,0.6-4.6,1-7,1.2
						C219.8,309.5,219.4,313.1,219.4,315.3z"/>
					<path class="st12" d="M219.4,315.3c0,0.6,0,1.2,0.1,1.7h29.3c0-0.6,0-1.2,0-1.7H219.4z"/>
					<path class="st12" d="M271.5,315.3c0,0.6,0.1,1.2,0.3,1.7h19.5c0.2-0.6,0.4-1.1,0.5-1.7c1.9-9.4-11.1-20.8-11.1-20.8l-4.1,5.5
						c0,0,0.5,8.8-3,10.6C272,311.6,271.1,313.4,271.5,315.3z"/>
					<path class="st12" d="M291.9,315.3h-20.4c0,0.6,0.1,1.2,0.3,1.7h19.5C291.6,316.5,291.8,315.9,291.9,315.3z"/>
					<path class="st5" d="M256.4,86.2c-5.4,2.6-14.1,29.9-17.2,40.4c-4.2-3.4-13.5-13.5-13.5-13.5s0,8.3-8.3,9.9
						c0,0,13.6,19.3,19.2,24c0.9,1.4,2.5,2.3,4.2,2.3c7.1,1.4,18.4-34.8,18.4-34.8L256.4,86.2z"/>
					<path class="st14" d="M304.1,164.1c0,18.6-1.8,37.5-2.3,42.3s-9.9,102.7-9.9,102.7s-10.1-8.2-15.9-2.1l1.2-14.8l0.3-107.5
						l-2.2,3.7l-21.7,103.8c0,0-4.7,13.5-4.8,18.3l-14.4-4.9l2.4-6.8l3.7-22.4c0,0,15-99.3,13.8-110.4L304.1,164.1z"/>
					<path class="st5" d="M252.7,108.4c0,1,0,2,0,3c-0.1,5.2,4,28.3-0.1,59.6c0,0,2.3,1.1,17.3-2.1l5.1,0.6c18-2.5,30.2,1,30.2,1
						s1.4-27.7,2.3-39.5c0.9-11.4,2.1-23,1.8-34.4c0-1.6-0.1-2.9-0.2-4c0-0.9-0.3-1.8-0.6-2.6c-2.2-3.3-7.2-4.8-16.8-7.5
						c-2.6-0.7-5.2-1.1-7.8-1.3c-3.7-0.2-7.3-0.2-10.5,0c-8.4,0.4-14.8,2.2-18.2,6.3c-0.1,0.1-0.2,0.2-0.3,0.3"/>
					<polyline class="st15" points="272.4,167.9 273.4,156.8 273.4,129.6 273.4,109.8 274.9,95.9 275.8,86.7 					"/>
					<path class="st5" d="M286.8,84.2c0,0-2.2-6.7-0.5-12.5c2.5-2.3,3.9-5.6,3.8-9c-0.5-14.2-7.5-17.1-18-13c-3,1.2-4,6.4-3.7,11.7
						c0,0.8,0.1,1.6,0.2,2.3c0.4,3.4,1.4,8.3,2.4,10.1c0.7,1.1,1.9,1.8,3.1,2l1.8,10.8"/>
					<path class="st4" d="M286.8,63c0,0,0.2-4.2-2.3-6.6s-0.3-6-0.3-6s-10.2-1.7-14.7,2.4c0,0-3.4-6,6.3-8.4s25.4,5.1,12.2,25.5
						l2.2-7.1L286.8,63z"/>
					<path class="st5" d="M287.1,62.5c0,0,2.3-2.7,4.4-1.1s-1.4,6.6-3.7,6.5"/>
					<path class="st12" d="M291.3,136.5c-2.5-0.1-3.9,11.3,1,12.5C292.3,149.1,298,136.6,291.3,136.5z"/>
					<path class="st4" d="M268.1,130.3l7.3-3.7c0.9-0.5,2.1-0.1,2.5,0.8l7.8,15.6c0.5,0.9,0.1,2.1-0.8,2.5l-7.3,3.7
						c-0.9,0.5-2.1,0.1-2.5-0.8l-7.8-15.6C266.8,131.9,267.2,130.8,268.1,130.3z"/>
					<path class="st5" d="M282.5,136.2c0,0,3.3-0.7,4.2-0.3s4.4,2.5,4.4,2.5l6.4-0.1l1.2,8.4c0,0-6.3-0.3-7.3,0.1s-8.5,3.1-9.9,2.9
						h-0.2c-1.4-0.3-3-1.7-4-2s-1.4-1.4-2.3-2c-0.7-0.8-1.2-1.7-1.5-2.7c0,0-3.1-2.8-1.8-3.1c1.6-0.5,3.4,1.2,3.4,1.2l4,0.7
						c0,0,4.8-1.9,4.6-2.9L282.5,136.2z"/>
					<circle class="st16" cx="273.4" cy="131.9" r="1"/>
					<circle class="st16" cx="274.5" cy="133.8" r="0.4"/>
					<path class="st5" d="M300.1,113.8l7.2,19.2c0,0-1.4,2.6-0.2,3.1l-15.8,0.4c0,0,4,4.2,1,12.5c0,0,20.7,6.2,29.5,0
						c2.6-1.8,3.9-6.9,3.3-10.6C320.5,112,308.3,90,308.3,90"/>
					<path class="st5" d="M210.4,110.8c1.4,0.6,2.8,1.4,4,2.3c2,2,3.1,3.1,4.6,3.6s3.3,4.5,3.3,4.5c2.1-1.6,3.6-3.7,4.6-6.1
						c0,0-1.5-1.7-1.6-2.4c-0.2-1.4,1.2-3.1,0.3-5.7c-0.5-2-0.8-4-0.7-6.1c0,0-1.2-0.8-1.7,0.5s0.1,3.4-0.3,3.9
						c-0.1,0.1-0.2,0.2-0.3,0.3l0,0c-0.3,0.3-0.8,0.5-1.2,0.4h-0.1c-1.5-0.4-3.7-3.2-4.5-4.5c-1.2-1.8-2.9-4.3-3.7-3.1
						s0.9,1.5,2.7,6l-0.4,0.3c0.1,0.3-2.5-1.8-4.4-4.2c-1.3-1.7-2-0.2-1.9,0.5s1.7,2.2,2.6,3.4c0.6,0.8,1.3,1.6,1.7,2.1l-0.3,0.6
						c-3.8-1.8-4-3.5-5.1-2.9s1,2.9,2.2,3.5c0.8,0.5,1.5,1.1,2.1,1.7c-3.2-0.8-3.7-2-4.4-1.4S209.3,110.5,210.4,110.8z"/>
					
						<ellipse transform="matrix(0.9932 -0.1163 0.1163 0.9932 -5.4568 31.8724)" class="st4" cx="270.3" cy="62.7" rx="0.9" ry="1.5"/>
					<ellipse class="st4" cx="277.4" cy="62.4" rx="0.9" ry="1.5"/>
					<path class="st10" d="M272.7,63.7c-0.5,1.1-1,2.2-1.7,3.3c-0.6,0.9,1.7,1.9,1.7,1.9"/>
					<path class="st10" d="M274.9,59.8c1.5-1.5,4-1.5,5.5,0.1"/>
					<path class="st10" d="M271.8,59.9c0,0-2.3-1.7-3.4,0"/>
					<path class="st4" d="M271.1,70.4c0,0,4.2,0.3,4.6-0.7c0,0,0.3,1.7-2,2S271.1,70.4,271.1,70.4z"/>
					<path class="st5" d="M275.5,87.4l-3.6,4.8c0,0-1.5-9.3-0.5-10.4l2.8-1.2L275.5,87.4z"/>
					<path class="st5" d="M286.2,80.6c0,0-0.1,6.1-6.1,6.9l2.9,6.4c0,0,5.2-7.4,6.2-9.4S286.2,80.6,286.2,80.6z"/>
					<line class="st15" x1="274.9" y1="98.6" x2="280.1" y2="87.5"/>
					<path class="st5" d="M197,320.4c-1.9-1.5-6.7-8-7.7-11.2c-1.4-4.6-3.1-10.9-4.7-17.8h-7.2c2.4,7.5,3.9,13.8,4.6,16.6
						c0,0.5-0.1,0.9-0.3,1.3c-0.2,0.7-0.6,11.2-0.6,11.2h16.1L197,320.4L197,320.4z"/>
					<path class="st12" d="M180.3,320.5c0,0-0.7-9.6,1.2-12.1c0,0,2.1,3.3,4.9,3.3c1.9,0,2.6-4.2,4.2-3.3c1.4,0.8,2.3,3.2,6,5.7
						s6.7,1.8,7,6.4H180.3z"/>
					<path class="st5" d="M143,291.4h-8.5c1.6,8.8,2.8,16.2,2.8,16.2v12.9h9.3c-0.9-3.9-3.5-15.5-3.5-20.4
						C143.1,297.3,143.1,294.3,143,291.4z"/>
					<path class="st12" d="M136,310.5c0,0,0.1-3.2,4.5-2.8s4.1,3.6,4.1,3.6c0.4-0.3,0.9-0.3,1.2,0c0.6,0.5,0.1,4.9,1.2,5.9
						s0.8,3.4,0.8,3.4H135c0,0-0.7-3.1,0.6-4.3S133.6,310.8,136,310.5z"/>
					<path class="st8" d="M186.6,299.3c-5.1-19.4-11.3-48.9-12.1-53.8c-0.5-3.1-1-13.2-2.2-25.4c-0.3-14-1.9-46-9.8-64.2l-18.5,0.4
						c0.8,14.4-13.2,30,3.8,46.7c2.2,6.2,9.6,27.4,10.6,36.7c1.3,11,3.3,15.9,9.7,28.1c5.5,10.6,9.4,23,11.7,31.5L186.6,299.3z"/>
					<path class="st8" d="M123.9,219.2L123.9,219.2c1.2,6.1,2.9,10.3,3.8,15.4c1.3,7.5-2.5,18.4,1.4,30.6c1.8,5.7,5.2,24.7,7.1,35.2
						h7v-0.3c0-25.5-3.5-55.9-3-67.5c0.2-4.9,1-11.8,1.9-18.1c0,0,2.7-18.3,5.4-19.8c10.9-6.3,15-38.8,15-38.8l-27.7,1.3
						c0,0-16.1,13.4-11.9,37.3c0,0,0,0.2,0,0.7C122.1,206.4,122.8,213.7,123.9,219.2z"/>
					<path class="st8" d="M167.2,171.3l-40-4.4c1-1.5,1.8-3.2,2.6-4.8c0.8-1.8,1.6-3.6,2.1-5.4c0.3-1,0.6-2.1,0.7-3.2l26.2-5.9
						c1.2,1.3,2.6,4.5,3.8,8.1c0.6,1.6,1.1,3.3,1.6,5C166,166.2,167.2,171.3,167.2,171.3z"/>
					<path class="st5" d="M210.9,152.8c0,0,0.4-0.7,2.6-0.3c2,0.3,3.8,0.9,3.8,0c0.1-0.7-3-1.2-5-1.6c-2.6-0.5-5.1-1.4-7.4-2.7
						c-0.6-0.4-0.1-0.6-0.1-0.6c5.3-2.1,3.4-3.2,3.4-3.2L203,146c-1.5,0.3-2.9,0.9-4.1,1.8c-4.8-0.8-15.3-2.7-19.4-4.4
						c-3.3-1.3-6.9-2.1-10.5-2.3c-9.2-29.5-10.8-34.8-19.6-37.1l2.9,19.8c0,0,9.6,24.5,13.7,26.6c3.3,1.7,23.8,1.9,31.1,1.9
						c0.4,2.1,4,3.9,5.9,4.2s5.1,3.8,6.7,3.7c0.6,0,0.3-0.5-0.8-1.4c-0.9-0.7-1.6-1.6-2.2-2.6c1.8-0.8,6.3,3.7,8.1,2.6
						c0.9-0.5-4.8-2.8-4.9-4c0,0-0.8-0.8,2.8,0.3c2.1,0.6,4.2,1.2,4.7,0.7C218.1,154.8,215.5,155.3,210.9,152.8z"/>
					<path class="st5" d="M152.3,104.8c0,0,5.1,2.1,6.4,3.3s11.4,32.9,11.4,32.9s-4.3,5.3-2.8,9.7c0,0-2.8,0.3-4.2-0.4
						c-1.2-0.7-13.7-37.9-13.7-37.9L152.3,104.8z"/>
					<path class="st4" d="M133.3,73c-2.3,3.2-3.6,7-3.6,11c0,0-2.8-3.4-4.2-0.4s4.3,7.2,4.3,7.2s-9.3,0.5-10.4-11.5
						C119,74.2,125.6,69.6,133.3,73z"/>
					<path class="st5" d="M146.5,73.1c-3.3-11.6-19.7-6.1-19.7-6.1c-8.7,4.5-4.8,15.9,2,23c0.9,2.4,2.6,7.9,0.5,12.6
						c2.3,3.1,6.1,4.8,10,4.5c5.1-0.6,2.9-4.5,2.9-4.5c-1.9-1.7-1.1-6-0.9-6.8C147.3,94.4,149.5,83.5,146.5,73.1z"/>
					<path class="st4" d="M137.5,69.6c0,0,2.5,13-7.7,14.3c0,0-3.6-6.2-8.5-1.9c0,0-5.1-14.1,7-16.4c0,0,2.3-5.4,11.8-3.7
						c10.3,1.8,8,6.9,9.4,9.8l-2.7,2C146.7,73.8,145.1,66.6,137.5,69.6z"/>
					<path class="st5" d="M119.6,104.8c1.4,0.8,3,1.6,5,2.4c35.2,15.7,26.9,1,26.9,1c0-1.1-0.4-2.1-1-3c-0.3-0.5-0.7-0.9-1.1-1.3
						c-2.9-1-18.5-5.8-29.1,0.4C120,104.5,119.8,104.6,119.6,104.8z"/>
					<path class="st5" d="M146,102.9c0,0,5.9,1,8.2,3.1s11.1,17.4,12.2,22.1c0.9,3.5-3.4,25.1-3.4,25.1s2.9,3,1.9,6.4
						c-0.4,1.5-10.9,0.2-10.9,0.2s-15.7,3.6-23.8,1.6s-15-27.1-15.7-35.9s-2.1-18.2,7.6-22.2c0,0,13.8,1.4,23.9,10
						C146.1,113.2,148.9,107.8,146,102.9z"/>
					<path class="st4" d="M146.5,113c0.8,1.6,1.5,3.2,2.1,4.9c0.6,1.5,1.1,3.2,1.7,5.2c0.3,1,0.5,2,0.7,3s0.4,2,0.6,3.1
						c0.6,3.8,0.9,7.7,0.9,11.6c0,1.8-0.1,3.5-0.2,5.2c0,0,0.2-2.1,0.1-5.2c-0.1-3.8-0.5-7.7-1.2-11.5c-0.2-1-0.4-2.1-0.7-3.1
						s-0.5-2-0.8-2.9c-0.6-1.9-1.2-3.6-1.8-5s-1.1-2.6-1.6-3.4s-0.7-1.3-0.7-1.3L146.5,113z"/>
					<path class="st5" d="M155.1,141.3c0,0,0.5-0.4,2.6,0c2,0.4,3.8,0.9,3.8,0c0.1-0.7-3-1.2-5-1.6c-2.6-0.5-5.1-1.4-7.4-2.7
						c-0.6-0.4,0.2-0.7,0.2-0.7c5.3-2.1,3.1-3.2,3.1-3.2l-5.3,1.6c-2.8,0.8-3.9,1.4-4.6,2.2l0,0l-26,13.4c0,0,8.7-24.5,9-27.9
						c0.7-7.5-3.5-18.8-9-15.2c-3.2,2.1-5.2,16.9-6.7,24.6s-5.8,26.3-3.2,28.4s10.5,2,17.8-4.2c5.5-4.6,13.7-10.6,17.5-13.4
						c1.4,1.4,3.2,2.3,5.1,2.7c1.8,0.4,5.1,3.8,6.7,3.7c0.6,0,0.3-0.5-0.8-1.4c-0.9-0.7-1.6-1.6-2.2-2.6c1.8-0.8,6.3,3.7,8.1,2.6
						c0.9-0.5-5.8-3-5.8-4.2c0,0,0.1-0.6,3.7,0.5c2.1,0.6,4.2,1.2,4.7,0.7C162.4,143.6,159.6,143.8,155.1,141.3z"/>
					<path class="st5" d="M117.8,106c0,0,2.7-1.1,6.1,3.4s1.8,18.7,1.8,18.7l-7.9,21.7c0,0-10.7,5.3-9.4,12
						c-1.4,0.2-2.7-0.5-3.4-1.7c-1.1-2.1,4.6-33.3,4.6-33.3s-1.2-1.2,0.1-4.5S112,108.8,117.8,106z"/>
					<path class="st5" d="M117.8,149.8c0,0-5.3,1.1-7.5,2.8s-3.5,5.8-3.5,6.1s1,4.2,1,4.2l2.5-1.2l-0.4,2l4.2-2.4
						C114,161.4,108.5,158.7,117.8,149.8z"/>
					<path class="st5" d="M171,141.1c0,0-3.6,5.2-3.6,6.5s2.7,3.6,2.7,3.6c-1.3,0.8-2.8,1.3-4.2,1.4c0,0,0.1-3.3,0-5.1
						s4.2-6.5,4.2-6.5H171z"/>
					
						<ellipse transform="matrix(0.9932 -0.1163 0.1163 0.9932 -8.5802 17.0063)" class="st4" cx="141.4" cy="82" rx="1.2" ry="1.6"/>
					
						<ellipse transform="matrix(0.9932 -0.1163 0.1163 0.9932 -8.4487 17.7105)" class="st4" cx="147.5" cy="81.2" rx="0.8" ry="1.6"/>
					<path class="st17" d="M145.4,81.3c0,0,2.5,3.7,3,3.9s-2.3,1.3-2.3,1.3"/>
					<path class="st17" d="M140.8,78.1c0,0-2-0.2-3.6,2.6"/>
					<path class="st17" d="M145.4,77.7c0.8-0.1,1.6,0.2,2.2,0.8"/>
					<path class="st4" d="M145.4,88.7c0,0-2.1-0.6-3.1,0.2s1.2,2.6,2.5,2.4S147,88.9,145.4,88.7z"/>
					<path class="st2" d="M55.3,75.1c1,0.7,1.8,1.6,2.3,2.7c0.6,1.2,5.6,9.2,7.2,10.7c1.6,1.5,2,7.4,1.2,8s-3.6,0-5.5-0.8
						s-6-5.7-6.7-8.7S55.3,75.1,55.3,75.1z"/>
					<path class="st2" d="M29.6,88.5c0-1.8-5.6-12.9-5.6-12.9c-1,1.9-1.7,3.9-2.1,6c-0.1,1.1-4.5,12.6-4.6,15.1s3.9,5.6,5.4,4.6
						l0.2-0.2c0.6,0.3,1.2,0.3,1.8,0.1c1.6-0.7,4.6-4.8,4.6-4.8s-1.3-0.5-2.7-0.9C28.1,92.6,29.6,89.5,29.6,88.5z"/>
					<path class="st2" d="M33.2,72.7c1.2-0.7,2.4-1.5,3.4-2.4c0.8-2.1,1.2-4.4,1.2-6.6l2.5-0.4l0,0l6.7,1.5
						c-0.5,2.8-0.7,5.6-0.7,8.4l-8.1,6.6L33.2,72.7z"/>
					<path class="st2" d="M37.2,62.6c0.4,2.7,0.3,4.8,1.5,6.3c1,1.3,2.5,2.2,4.1,2.4c1.6,0.3,3.2-0.4,4.2-1.7
						c0.7-0.7,1.3-2.6,1.9-4.8c0.1-0.3,0.2-1.2,0.2-1.5s0.3-1.1,0.4-1.4c1.3-4,0-7.3-5.1-7.9C36.6,53.2,36.6,58.5,37.2,62.6z"/>
					<path class="st2" d="M38.2,60c-0.7-0.1-1.7,0-1.8,0.9s0.3,3.6,1,3.6S38.2,60,38.2,60z"/>
					<path class="st2" d="M49.3,61.8c1-0.8,0.9,0,0.5,1.6c-0.4,1.3-1.4,3-1.6,2.5S49.3,61.8,49.3,61.8z"/>
					<path class="st2" d="M46.4,58.4c3.6-1.4,3.4,1.3,3.3,3.3c0.7-0.1,0.3,0,0.3,0s0.1-0.4,0.8-2.5c0.7-2.4-1.6-8.1-5-6.6
						S46.4,58.4,46.4,58.4z"/>
					<path class="st2" d="M47.6,57.8c-0.8,0.8-4.3,1-5.2,0.2c-0.6-0.7-1.6-0.8-2.3-0.2c-0.3,0.2-0.5,0.5-0.5,0.8
						c-0.2,0.6-0.8,3.1-0.8,3.1l-1-1.3l-1.3,0.1c-0.2,0-0.3-1.3-0.1-4.4c0.1-3.3,7.2-5.8,9.1-4.6c1.4,0.9,2.3,1,2.7,2.6
						C48.8,57.5,47.6,57.8,47.6,57.8z"/>
					<path class="st2" d="M45.6,58.2c-2,0-0.8-0.6-3.3-1.2c-1-0.2-1.9,0.2-2.5,1c0,0,1.7-2.5,3.7-1.3s2.5,0.5,2.5,0.5
						s-3.7-2-5.3-0.5c1-1.5,3-1.9,4.5-0.9c0,0,0,0,0,0c0.4,0-1.7-1.1-2-1c0.6-0.7,3.9-1.2,4.8,0.5s0.2,1.9-0.4,2.2
						C46.9,57.7,46.2,58,45.6,58.2z"/>
					<path class="st2" d="M43.8,62.1c0.2-0.5,1.4-0.5,2,0c0,0.2,0,0.3-0.1,0.5c-0.5-0.4-1.3-0.5-1.9-0.2L43.8,62.1z"/>
					<path class="st18" d="M45.7,62.1c0,1-0.1,2.4,0.8,2.8s2.9,0.7,3.4-1.4c0.2-1.3,0-1.1-1.2-1.3C47.7,61.9,46.7,61.9,45.7,62.1z"
						/>
					<path class="st2" d="M45.7,62.1c0.3-0.2,2.9-0.8,4.5,0.4L50,63.4l-0.4-0.1c0.1-0.3,0-0.7-0.3-0.9c-0.2-0.1-3.3-0.4-3.5,0.2
						L45.7,62.1z"/>
					<path class="st18" d="M44,61.9c-0.2,1-0.4,2.4-1.5,2.6s-3.4,0.1-3.4-2.1c0-1.3,0.2-1.1,1.6-1.1C41.8,61.4,42.9,61.6,44,61.9z"
						/>
					<path class="st2" d="M44,61.9c-0.3-0.3-3-1.3-5-0.5l0,1h0.4c0-0.4,0.2-0.7,0.5-0.8c0.3-0.1,3.7,0.2,3.9,0.9L44,61.9z"/>
					<path class="st2" d="M39.1,62.2C39,62,37,60.4,36.4,60.4c0.1-0.2,0.2-0.3,0.3-0.3c0.8-0.1,2.5,1.1,2.5,1.1L39.1,62.2z"/>
					<path class="st2" d="M45.8,72.1c-0.4,0.6-2.2,2.1-3.5,1.9c-1.2-0.6-4.8-3-5.2-4c-0.4,0.4-3.6,3.3-3.6,3.3l-0.8,32.8h11.2v0.1
						l7.7-0.1l0.2-29.8L45.8,72.1z"/>
					<polygon class="st2" points="42.1,75.6 43.6,75.6 43,73.1 41.1,73.1 40.5,74 					"/>
					<polygon class="st2" points="42,75.2 41.6,99.7 45.1,102 43.5,75.2 					"/>
					<polygon class="st2" points="44.2,75.5 43.4,75.5 43,73.1 45,73 45.6,73.8 					"/>
					<polygon class="st2" points="44.2,75.1 47.6,99.5 45.1,101.9 43.3,75.1 					"/>
					<polygon class="st2" points="43.7,72.9 47.1,76.8 48.2,72.7 46.6,70.4 					"/>
					<path class="st2" d="M36.9,68.4c0.1,0.9,3.5,3.4,6.1,4.6c-0.7,0.1-1.4,0.4-1.9,0.9c-0.6,0.8-2,3.2-2,3.2s-3.5-3.7-3.5-4.8
						S36.9,68.4,36.9,68.4z"/>
					<path class="st2" d="M46.6,121.8l-1.1-0.5l-0.7-27.7c0,0,3.7-6.5,4-18.2l-1-3.8c2.2,1.3,2.1,2.2,7.8,3.5
						c0.6,0.1,0.2,3.6,0.2,3.6s-0.6,8.5-1,9.6c-0.7,3.1-1,6.2-1.1,9.4c0,1.5,3.1,16.8,3.3,22.8c0,0.2-0.1,0.6-0.8,0.8L46.6,121.8z"
						/>
					<path class="st2" d="M47.1,71.2c0.3,0.1,4.1,2.4,4.1,2.4l0.9,2.2l-2.5,0.3l2.6,1.3L45,93.6c0,0,3.6-14.6,3.3-18.6
						C48.2,73.7,47.8,72.4,47.1,71.2z"/>
					<path class="st2" d="M45.5,121.3c0,0-0.4,0.8-1.2,0.8c-3.8-0.3-16.3,0.1-16.8,0c-0.5,0-0.9-0.4-1.1-0.9
						c0.1-7.5,2.7-19.4,2.8-22.7c-0.2-3.3-0.7-6.5-1.6-9.7c-0.4-1.2-2.5-5.6-2.5-5.6s-3.4-1.7-2.8-4.2c0.2-1.1,1-4.1,2.1-4.3
						c3.1-0.6,5-1.3,10.4-3.6c-0.1,3.9,0.9,7.8,2.9,11.2c1,1.8,6.5,10,7.1,11.9S45.5,121.3,45.5,121.3z"/>
					<path class="st2" d="M36.7,69.6c0-0.1-3.5,2.8-3.5,2.8l-1,3l2.5,0.7l-2.3,3l12.1,14c0,0-8.2-16.5-8.6-18.7
						C35.6,72.8,35.9,71.1,36.7,69.6z"/>
					<path class="st2" d="M38.7,182.4c0.2-1.4-1-3.6-0.1-10.8c0.1-0.9-8-1.9-8-1.9c0.2,3.6,1.8,8-2.6,11.5c-0.8,0.6-1.6,1.1-2.5,1.6
						c-0.9,0.6-0.8,2.9,1.2,3.3c3.8,0.7,8,0.4,9.4-2.2C36,183.8,38.2,184.7,38.7,182.4z"/>
					<path class="st2" d="M49.7,182.7c-0.1-1.2,0.5-3.7,0.2-9.3c0-0.8,7.2-1.6,7.2-1.6c0,3.2-0.8,5.9,2.9,9.2c1,0.9,3,2.1,3.1,2.5
						c0.2,1,0.4,2.2-1.2,2.8c-3.8,1.3-6,0.5-9.1-1.8c-0.2-0.1-0.4-0.1-0.6-0.1c-0.8,0.4-1.8,0-2.2-0.8
						C49.8,183.1,49.7,182.9,49.7,182.7z"/>
					<path class="st2" d="M32.5,102.8c-1.6,3.9-3.4,7.8-3.6,14.5s0,31.3,0.4,36.3c0.1,1.5-0.2,23.2-0.3,25.1s10.9,3.1,11.2,1.6
						c1.4-6.3,0-23.2,0.1-26.5s2.8-24.4,2.8-27.1s-0.4-18.6-0.4-18.6L32.5,102.8z"/>
					<path class="st2" d="M53.3,107.2c2.2,3.8,3,44.5,2.5,47.8c-1,6.1,2.6,22.1,2.5,23.6c-2.2,2.5-7.3,2.5-10,1.7
						c-0.4-0.1-1.5-6.6-1.4-13.2c0.1-4.2,0.4-9.8-0.3-11.2c-0.8-1.7-6.7-36.3-6.7-36.3l-1.1-13.2L53.3,107.2z"/>
					<path class="st2" d="M50.8,106.3c0.6,20.3,0.8,39.9,1,43.5c0.3,4.5,2.9,6,1.7,7.3s1.1,5,1.2,11.6s-2,7.3-3.2,7.8
						s0.5,1.4,1.4,1.4s-1.8,0.7-2.3,0.5s3.2,4.6,8.5,0.7c0.7-7.9,0-15.8-1.8-23.5c-1.3-5.3-0.5-11.7-0.7-19.8S55,105.1,55,105.1
						L50.8,106.3z"/>
					<path class="st2" d="M29.9,96.1c0.5,0.6,0.9,1.2,1.2,1.9c0.3,0.6,0.9,2.3,0.5,2.5s-0.9-0.8-1.5-1.8c-0.3-0.5-0.6-0.7-0.9-1
						c0,0,0.5,0.7,1,1.5s1.2,1.9,0.6,2.3c-0.5,0.3-1.1-1.2-1.5-1.6c-0.7-0.7-1.3-1.2-1.3-1.2l0.9,1.3c0.6,0.9,1.3,1.1,1,1.4
						c-0.6,0.5-1.2,0-2-0.7c-0.4-0.3-0.8-0.7-1.1-1.2c0,0,0.3,0.4,0.7,1s1.1,0.8,0.7,1.1s-1.1-0.1-1.5-0.3c-0.6-0.4-1.1-0.8-1.5-1.3
						c-0.5-0.6,0-2.4,1.2-3.4C28.4,94.8,29.9,96.1,29.9,96.1z"/>
					<path class="st2" d="M58.7,74.7c-1.2-1-2.5-1.9-3.8-2.6l0,0c-1.8-1.1-3.5-2-3.5-2l0,0l0.3-0.5c0,0,6.8,3.8,7.5,4.8l0,0
						c0.7,1.1,4.3,19.3,5,26.6l0,0l-0.6,0.1C62.9,94,59.2,75.4,58.7,74.7z"/>
					<circle class="st2" cx="51.1" cy="69.7" r="1.7"/>
					<path class="st2" d="M27.2,112.1c0.1,0.2,0.8,0.4,1.5,0.4h28.6c0.6,0.1,1.1-0.1,1.6-0.3l0.7-1.3c0.1-0.2-0.5-0.4-1.3-0.4H28.2
						c-0.8,0-1.6,0.2-1.5,0.5L27.2,112.1z"/>
					<rect x="31.7" y="106.6" class="st2" width="23" height="81.3"/>
					<path class="st2" d="M35.9,181c0,0.1,0.1,0.3,0.3,0.3h14c0.1,0,0.3-0.1,0.3-0.3v-66.8c0-0.1-0.1-0.3-0.3-0.3h-14
						c-0.1,0-0.3,0.1-0.3,0.3V181z"/>
					<path class="st2" d="M69.5,102.1c0.7-0.6,0.5-1.1-0.4-1.1H17.1c-0.9,0-1,0.4-0.3,0.9l4.7,4.7c0.7,0.5,1,0.9,1.9,0.9h41
						c0.9,0,0.9-0.5,1.6-1.1L69.5,102.1z"/>
					<path class="st2" d="M16.4,101.1c0,0.2,0.1,0.3,0.3,0.3h53c0.2,0,0.3-0.1,0.3-0.3l0,0v-0.6c0-0.2-0.1-0.3-0.3-0.3l0,0h-53
						c-0.2,0-0.3,0.1-0.3,0.3L16.4,101.1z"/>
					<path class="st2" d="M26.5,110.2c0,0.9,0.6,1.6,1.5,1.6h30.2c0.9,0,1.5-0.7,1.5-1.6v-5.5c0-0.9-0.6-1.6-1.5-1.6H28
						c-0.9,0-1.5,0.7-1.5,1.6L26.5,110.2z"/>
					<path class="st2" d="M64.7,87.9c-0.6-0.5-1.5-1.3-1.7-1.9s-0.5-0.9-0.6-0.5S62.3,87.6,63,88C63.6,88.2,64.2,88.2,64.7,87.9z"/>
					<path class="st2" d="M63.7,87.4c-0.7,0.1-1.4,0.2-2.1,0.4c-0.6,0.2-2.1,0.9-2.1,1.3s1.2,0.1,2.2-0.1c0.5-0.1,0.9,0,1.3-0.1
						c0,0-0.8,0.1-1.7,0.3c-0.8,0.2-2.1,0.4-2,1.1c0.1,0.5,1.5,0,2.1,0c0.9,0,1.7,0.1,1.7,0.1l-1.4,0.2c-1,0.2-1.7-0.2-1.7,0.2
						c0,0.7,0.8,0.8,1.8,1c0.5,0.1,1,0.1,1.6,0l-1.1,0.1C61.5,92,61,91.6,61,92.1s0.8,0.7,1.2,0.8c0.6,0.1,1.3,0.2,1.9,0.2
						c0.7,0,1.6-1.6,1.6-3.1C65.6,87.6,63.7,87.4,63.7,87.4z"/>
					<path class="st5" d="M475.9,304c0,0.5-2.2,1.4-2,1.8c0.5,1.6,1.6,5.1,2,6.5c0.5,1.8-1,6.8-1.4,7.8h-1.2c0-0.9-0.2-4.7-1.1-5.5
						c-1.8-0.3-3.7,0.5-4.7,2c-0.6,0.9-1.2,1.8-2,2.6h-10.2c0.3-0.4,0.6-0.7,0.9-1c0.7-0.6,1.6-1.1,2.5-1.3h0
						c1.9-1.5,6.7-8,7.6-11.2c5.2-17,13.9-57.8,14.8-63.6s1.7-34.9,7.5-58.6s19.8,14.4,19.8,14.4s-10,27.4-11.3,38.4L475.9,304z"/>
					<path class="st19" d="M465.4,320.2c1,0,3-2.1,4.4-3.2c0.6-0.5,1.3-0.9,2.1-1c1,0.8,1.3,3.3,1.4,4.2h1.2c0.4-1.1,1.9-6,1.4-7.8
						c-0.7-2.1-1.2-4.2-1.5-6.3c-3.8-2.1-7,5.1-11.8,9.2c-2.4,2-3.9,1.7-3.9,1.7h0c-1,0.2-2,0.5-3,0.9c-1,0.5-1.9,1.3-2.3,2.3
						L465.4,320.2z"/>
					<path class="st5" d="M532.6,191.1c1.5,24.2-3,30.2-4.8,40.1c-1.3,7.5,2.5,18.4-1.4,30.5c-2.6,8.1-8.3,42.3-8.3,42.3v14.2h-9.5
						c0,0,1.7-15.1,1.7-21.1c0-25.5,3.5-55.9,3-67.4c-0.5-11.3-2.2-34.1-2.2-34.1L532.6,191.1z"/>
					<path class="st19" d="M519.7,320.2c0.2-2-0.3-5.6-0.3-7.3c-0.2-2.5-0.7-5-1.3-7.5c-0.4,2.8-1,5.5-1.9,8.1
						c-0.5,1.9-4.2,1.5-4.9,0s0-8.1,0-8.1c-1.7,2.7-1.2,6.5-2.7,7.8c-1,0.9-1.2,5.1-1.1,6.9L519.7,320.2z"/>
					<path class="st5" d="M471,118.7c-0.8-1.5-7.3,6.4-5.4,11.2s5.4,4,5.4,4S473.3,122.9,471,118.7z"/>
					<path class="st5" d="M452.8,111.9c1.8,0.5,3.5,0.8,5.4,1c0,0-2.1-1.1-4.1-1.9l-0.9-0.4l-3.8-1.2c0,0-0.6-1.2,0.8-1.2
						c1.2,0.1,2.4,0.3,3.5,0.7c0.9,0.3,1.4,1.1,2.2,1.4c2.4,1,5,1.6,7.7,1.7c0.4,0,0.7,0,1.1,0l1.8-0.8c1.8,2.1,2.5,3.3,2.6,4.2l0,0
						l3.5,8.4l-3.4,8c0,0-2-7.5-3.1-11.3c-1.8,0.2-3.6,0-5.3-0.6c-1.7-0.7-6.3,0.4-7.6-0.6c-0.5-0.4,0-0.6,1.5-0.7
						c1.1-0.1,2.2-0.5,3.3-0.9c-0.7-1-4.2,0.6-5.5-1.1c-0.4-0.6,0.2-1.3,0.2-1.3c2,0.2,4.4,0.4,4.8-0.1c0,0-0.4-0.6-3.9-1.7
						l-0.7-0.2"/>
					<path class="st5" d="M513.4,101.3c0,0-17,5.5-20.6,8.9l-9.8,30.2c0,0-0.3-2.1-1-1.2l-11-20.5c0,0-0.2,11.2-5.4,11.2
						c0,0,10.8,29.7,16.8,31.3s16.3-24.5,16.3-24.5L513.4,101.3z"/>
					<path class="st5" d="M478.4,180.5c5-5.3,46.4-1.6,50.9,3.1s-6.7-62.7-6.7-62.7s-20.4-1.9-21.6,3.5
						C495.1,152.4,478.4,180.5,478.4,180.5z"/>
					<path class="st7" d="M525.4,145.9c3.3,8.1,13.5,36.5,10.1,74.4c0,0-9.9,6.2-31.2,5.5c-23.1-0.8-28.7-8.1-28.7-8.1
						c9-35.4,20.8-77,20.8-77c-12.8-21.8,9.5-37.1,9.5-37.1l0.5-0.2c2.9-1,19.2-5.9,29.8,0.8c0.7,0.4,1.4,0.9,2,1.5
						C549.6,115.6,525.4,145.9,525.4,145.9z"/>
					<path class="st5" d="M536.1,104.3c-1.4,0.8-3,1.6-5,2.4c-35.2,15.7-26.9,1-26.9,1c0-1.1,0.4-2.1,1-3c0.3-0.5,0.7-0.9,1.1-1.3
						c2.9-1,18.5-5.8,29.1,0.4C535.7,104,535.9,104.2,536.1,104.3z"/>
					<path class="st4" d="M530.8,67.7c-0.4-4.9,11.4-9.9,14.6-0.6c3.8,11.1-7.5,13.2-11,10.2S531,70.3,530.8,67.7z"/>
					<path class="st20" d="M519.5,75.7c-0.1,0-0.2-0.1-0.3-0.2c-0.5-0.6-1.2-1-2-0.9c-0.2,0-0.4-0.1-0.4-0.3c0-0.2,0.1-0.4,0.3-0.4
						c1-0.1,2.1,0.4,2.7,1.2c0.1,0.2,0.1,0.4-0.1,0.5C519.6,75.7,519.5,75.7,519.5,75.7z"/>
					<path class="st20" d="M511.9,74c-0.1,0-0.1,0-0.2-0.1c-0.6-0.5-1.5-0.6-2.2-0.3c-0.2,0.1-0.4,0-0.5-0.2c-0.1-0.2,0-0.4,0.2-0.4
						c0,0,0,0,0,0c1-0.4,2.1-0.3,2.9,0.4c0.1,0.1,0.1,0.3,0,0.5C512.1,74,512,74,511.9,74z"/>
					<path class="st4" d="M522.5,72.5c2.3,3.2,3.6,7,3.6,11c0,0,2.8-3.4,4.2-0.4s-4.3,7.2-4.3,7.2s9.3,0.5,10.4-11.5
						C536.8,73.7,530.2,69.1,522.5,72.5z"/>
					<path class="st5" d="M527,89.6c6.8-7.1,10.8-18.5,2-23c0,0-16.4-5.5-19.7,6.1c-3,10.4-0.8,21.3,5.3,22.8c0.2,0.8,1,5.1-0.9,6.8
						c0,0-2.2,3.9,2.9,4.5c3.9,0.3,7.7-1.4,10-4.5C524.4,97.5,526,92,527,89.6z"/>
					<path class="st4" d="M522.7,70.8c0,0-1.3,10.9,3.3,12.7c0,0,3.6-6.2,8.5-1.9c0,0,5.1-14.1-7-16.4c0,0-5-5.4-13.9-3.3
						c-6.2,1.5-6.2,8.2-3.8,9.2S521.1,69.8,522.7,70.8z"/>
					<path class="st21" d="M509.4,80.2c0,0-2.9,4.7-3.3,5.2c-0.7,1.1,3.1,2.6,3.1,2.6"/>
					<path class="st4" d="M511.5,81.4c0.1-0.9,0.7-1.6,1.3-1.6s0.9,0.9,0.8,1.9c-0.1,0.9-0.7,1.6-1.3,1.6
						C511.7,83.1,511.3,82.3,511.5,81.4z"/>
					<path class="st4" d="M510.1,89.8c1.2,0,2.3-0.3,3.4-0.8c1-0.7-0.6,2.6-2.1,2.4c-0.7,0-1.3-0.6-1.3-1.4
						C510.1,90,510.1,89.9,510.1,89.8z"/>
					<path class="st10" d="M511.8,78.3c0,0,2-1.4,4.1,0.9"/>
					<path class="st5" d="M529.3,100.8c-7.1,5.6-12.7,12.9-16.2,21.2c-6,14.1,10.8,73.2,10.8,73.2s10.8-2.8,19-8.1l-12.2-41.5
						c0,0,13.2-27.5,13.5-32C544.1,113.6,541.8,103.8,529.3,100.8z"/>
					<path class="st22" d="M537.1,226.2c-0.1,1,2.5,2.1,2.5,2.1s0.9,1.8,2.3,1.8s4.2-4.6,2-7S537.5,223,537.1,226.2z"/>
					<path class="st14" d="M553.9,243.9c0.8,12.5,1.2,10.8-0.2,13.1s-7.7,9.5-13.5,14.8c-1.4,4-4.5,6.4-5,6.4
						c-1.4,0.2-2.8,0.1-4.1-0.3c-0.3,0-0.6,0-0.8-0.2c-3.3-2.2-2.9-33.4-2.2-36.5s22.1-15.5,23.7-14.7c0,0,0.4-0.1,0.9-0.1
						c0.6,0,1.2,0,1.8,0c0.6,0,1.2,0.1,1.7,0.4C556.3,232.6,555.5,238.4,553.9,243.9z"/>
					<path class="st7" d="M546.2,229.5c0.6-0.1,1.2-0.2,1.7-0.2c-1.6-13.7-9.9-1.4-11.8,3.8c-0.2,0.7-0.3,1.3-0.4,2
						c0.6-0.1,1.2-0.2,1.8-0.3c0.1-0.4,0.2-0.8,0.4-1.2C541.6,224.5,545.9,222.6,546.2,229.5z"/>
					<path class="st23" d="M544.5,216.1c0,0,5,6.7,4.5,8.2s-4.5,3.3-4.5,3.3s-0.8,2.8-2.6,2.5c0.5-1,0.5-2.2,0.2-3.3
						c-0.6-1.7-3.3-2.2-3.3-2.2l-1.7,1.6c0,0-0.1-7.3,1-9.4S544.5,216.1,544.5,216.1z"/>
					<path class="st5" d="M544.5,216.1c-1-2.9-2.3-18.4-2.3-18.4l-7,3c0,0,2.9,11.7,2.4,17.8L544.5,216.1z"/>
					<path class="st11" d="M535.2,249.9l21-14.7c0,0,0.6,5.1,0,5.8s-16.4,13-17.5,12.7S535.2,249.9,535.2,249.9z"/>
					<path class="st11" d="M535.2,249.9c0,0,0,19.3,2,20.3s20-16.4,20-16.4s-19.2,18.4-20.3,18S534,253.7,535.2,249.9z"/>
					<path class="st5" d="M544.1,113.6v68.9l1.3,27c0,0-1.2,6.4-9.1,7.2l-5.8-43.7l-1.1-34.2C529.4,138.8,534.8,118.2,544.1,113.6z"
						/>
					<path class="st4" d="M455.3,101.9l8.9,0.6c0.7,0,1.1,0.6,1.1,1.3l-1.2,17.8c0,0.7-0.6,1.1-1.3,1.1L454,122
						c-0.7,0-1.1-0.6-1.1-1.3L454,103C454.1,102.3,454.6,101.8,455.3,101.9z"/>
					
						<rect x="450.6" y="107.8" transform="matrix(6.505480e-02 -0.9979 0.9979 6.505480e-02 316.8358 563.1616)" class="st24" width="16.8" height="9.4"/>
					
						<rect x="459.2" y="101" transform="matrix(6.505480e-02 -0.9979 0.9979 6.505480e-02 326.5094 555.1044)" class="st24" width="0.6" height="4.5"/>
					<path class="st5" d="M464.7,112.9c-3.3-4.6-1.8-5.9-1.8-5.9l4,4.7"/>
					<path class="st5" d="M452.9,113.7c0.9,0.4,2.3-0.3,2.4-0.9c0.1-0.8-0.9-1.2-2.5-0.6C452.8,112.2,452.3,113.5,452.9,113.7z"/>
					<path class="st5" d="M452.6,116.8c0.6,0.5,1.5-0.4,1.7-1.1c0.1-0.4-0.8-0.3-1.8-0.2c-0.3,0.3-0.4,0.8-0.1,1.1
						C452.4,116.7,452.5,116.8,452.6,116.8z"/>
					<path class="st5" d="M379.1,157.9l26.9,0.7c0,0,2-4.9,3.2-5.9l2-1.3l2.2-4.8c0.9-1.6,1.6,1.2,1.6,1.8c-0.1,1.5-0.2,3-0.5,4.4
						c0,0,5.2,1.4,4.9,2s-4.5,6.9-5.5,7.4s-6.1,3-6.1,3l-28.2,4.4c-4-1.3-7.8-3.4-11-6.2L379.1,157.9z"/>
					<path class="st5" d="M419.5,154.8c0.9-1.3,0.4-5.9-0.2-5.6s-1.3,2.5-1.3,2.5l0.2,1.4c0,0-0.8-0.5-0.9-0.2s-0.7,1.7-0.7,1.7
						l-0.7,2.8"/>
					<path class="st5" d="M304.8,184.1c-1.4,1.9-3.2,5.4-2.2,6.8c3.8,5.4-2.8,7.4-2.8,7.4s0.5,5.2-1.6,6.6s-1.3-3.1-3.5-2.7
						s-0.9-3.4-3.6-3.4s-2.3-1.9-1.4-5.2c0.4-1.5,4.6-6.2,10.2-17.5l11.5-22.6l9.7,4.9L304.8,184.1z"/>
					<path class="st5" d="M316,168l-10.4-5.9c0,0,22.5-54.2,29.2-58.2c4.6-2.8,14.9,13.2,11.8,21.2L316,168z"/>
					<path class="st5" d="M354,106.8l7-9.7c0,0,3.6,2.7,6.1,1.7c1-0.4,3-3.3,5.2-8.2c0.2-0.5,1.8,1.3,2,0.8c0.5-1-1.2-7.3-0.1-9.1
						c4-6.8,4.1-8.9,2.8-11.8c-2.9-6.3-18.9-13.4-24.2-6.4s-6.1,11.1-6.5,23.9l-6.8,10.2L354,106.8z"/>
					<path class="st6" d="M401.4,325.6l4.5,13.5c0,0,13.8,0.8,14.1,1.8l-19.8,5.4l-5.2-18.9L401.4,325.6z"/>
					<polygon class="st6" points="297,347.4 285.7,347.4 277.5,341.1 287.7,324.4 293.3,327.8 286.6,340.3 288.7,345.2 					"/>
					<polygon class="st7" points="372.2,193.8 406.8,335.1 395.3,338.1 367.8,267.1 348,217.5 326.8,285.3 290.6,337.4 282.2,331.4 
						311.6,263.4 323.7,196.1 					"/>
					<path class="st5" d="M341.6,92c0,0,10.5,3.3,15.8,9.4s13.8,23.7,14,25.6s-2.7,23.7-2.7,23.7l5.5,43.6c0,0-33.1,11.6-53.4,5.4
						l7.2-39c0,0-1.5-16.7-3.2-18.7s1.3-18.6,2.6-26.3s7.4-16.5,9.5-18.3C338.6,95.7,340.2,93.9,341.6,92z"/>
					<path class="st5" d="M331.9,124.4c1.5,7.6,39.9,41.9,39.9,41.9l9-7.8l-12.3-15.8"/>
					<path class="st4" d="M368.1,142.9c-0.1,0-0.2-0.1-0.3-0.1c-4.1-3.7-6.3-8.9-8.5-13.9c-0.6-1.3-1.1-2.7-1.7-4
						c-3-6.5-7-12.4-11.8-17.7c-1.1-1.4-2.5-2.5-4.1-3.2c-1.4-0.5-3.4-0.4-4.4,0.9c-0.2,0.2-0.5,0.3-0.7,0.1
						c-0.2-0.2-0.3-0.5-0.1-0.7c1.4-1.8,3.9-1.9,5.6-1.2c1.8,0.8,3.3,2,4.5,3.4c4.9,5.3,9,11.4,12,17.9c0.6,1.3,1.2,2.7,1.8,4
						c2.1,4.9,4.3,10,8.2,13.6c0.2,0.2,0.2,0.5,0,0.7c0,0,0,0,0,0C368.4,142.8,368.2,142.8,368.1,142.9z"/>
					<path class="st4" d="M357.3,79.8c0,0-0.6-4-3.2-2.6s-0.4,7.7-0.4,7.7l-7.4,3.1c0,0-0.5-6.8-0.5-11.4s0-15.1,6-15.2
						c-0.1-2.4,1.2-4.6,3.4-5.7c2.1-0.8,4.4-0.7,6.5,0.2c2,0.9,3.9,2.1,5.7,3.5c1.7,1.4,3.6,2.6,5.6,3.5c0.9,0.4,1.8,0.6,2.8,0.4
						c1-0.2,1.7-1,1.7-2c-0.1-1-1.3-1.7-2-1.1c1.6-1.1,3.2-1.6,4.9-0.9s2.8,3.2,1.6,4.6c1-0.4,1.8-1.2,2.1-2.2
						c2.5,3.4,1.8,8.5-1.1,11.6s-8.2,2.8-12.3,1.8c-2.8,4.3-7.7,0.2-7.7,0.2l-2.4,5.2L357.3,79.8z"/>
					
						<ellipse transform="matrix(0.3659 -0.9307 0.9307 0.3659 156.2678 398.3569)" class="st4" cx="370.4" cy="84.5" rx="2" ry="1.2"/>
					<path class="st25" d="M370.1,94c-1.9-0.4-3.5-1.6-4.5-3.3"/>
					<path class="st25" d="M372.4,80c-1.3-0.8-2.9-1-4.4-0.5"/>
					<path class="st5" d="M382,157.9l-11.1,10l-7-5.7c0,0,7.5-8.3,9.1-7.4s4.7,3.1,4.7,3.1l-3.5-5.3l2.8-1.7L382,157.9z"/>
					<path class="st5" d="M303.5,161.4l13,7.5l5.7-7c0,0-9.1-6.6-10.4-5.4s-4,4.1-4,4.1l2.3-5.9l-3.1-1.2L303.5,161.4z"/>
					<path class="st4" d="M426.4,136.9L426.4,136.9c0.8,0.4,1,1.4,0.6,2.2l-11,19.2c-0.4,0.8-1.4,1-2.2,0.6l0,0
						c-0.8-0.4-1-1.4-0.6-2.2l11-19.2C424.7,136.7,425.7,136.5,426.4,136.9z"/>
					<path class="st26" d="M369.1,166.6l-2.8,50c-0.1,1.5-1.4,2.7-2.9,2.6l-40.6-1.9c-1.5-0.1-2.7-1.3-2.6-2.9c0-0.1,0-0.1,0-0.2
						l2.9-24.1c0.2-1.4,1.4-2.4,2.8-2.4l34.7,0.4c1.5,0,2.8-1.2,2.8-2.7l0.2-19c0-1.5,1.3-2.7,2.8-2.7c0.2,0,0.5,0,0.7,0.1l0,0
						C368.4,164.1,369.2,165.3,369.1,166.6z"/>
					<path class="st8" d="M315.8,180.2l45.2,2.9c2.8,0.2,4.9,2.6,4.7,5.3l-1.5,23.2c-0.2,2.8-2.6,4.9-5.3,4.7l-45.2-2.9
						c-2.8-0.2-4.9-2.6-4.7-5.3l1.5-23.2C310.6,182.1,313,180,315.8,180.2z"/>
					<path class="st8" d="M310.1,189.7c0,0,13.4-79,26.8-92.3c-9.6,29.4-16.7,59.5-21.3,90L310.1,189.7z"/>
					<path class="st8" d="M361.8,197.7c1.1-16,1.3-24.4,1.9-34.9l3.3,2.8c-0.9,17.1-1.7,28.6-1.7,28.6"/>
					<path class="st8" d="M368.5,142c0.4-11.3,0-20.6-0.8-23.6l-3-5.6c0,0,1.4-1.6,0.4,25.3L368.5,142z"/>
				</g>
			</g>
		</g>
	</g>
</g>
</svg>
